<?xml version="1.0" standalone="no"?>
<!DOCTYPE svg PUBLIC "-//W3C//DTD SVG 1.1//EN" "http://www.w3.org/Graphics/SVG/1.1/DTD/svg11.dtd" >
<svg xmlns="http://www.w3.org/2000/svg" xmlns:xlink="http://www.w3.org/1999/xlink" version="1.1">
<metadata></metadata>
<defs>
<font id="svn-gilroysemibold_italic" horiz-adv-x="522" >
<font-face units-per-em="2048" ascent="1638" descent="-410" />
<missing-glyph horiz-adv-x="512" />
<glyph unicode="&#xfb01;" horiz-adv-x="1112" d="M100 811l37 213h156l4 20q37 214 169 315t368 101q111 0 221 -26l-35 -203q-98 16 -201 16q-134 0 -208.5 -47.5t-92.5 -155.5l-4 -20h561l-180 -1024h-221l143 811h-340l-143 -811h-221l143 811h-156z" />
<glyph unicode="&#xfb02;" horiz-adv-x="1112" d="M100 811l37 213h156l4 20q37 214 169 315t368 101q150 0 311 -37l-250 -1423h-221l221 1264q-23 2 -96 2q-243 0 -281 -222l-4 -20h191l-37 -213h-191l-143 -811h-221l143 811h-156z" />
<glyph horiz-adv-x="0" />
<glyph horiz-adv-x="682" />
<glyph unicode=" "  horiz-adv-x="512" />
<glyph unicode="&#x09;" horiz-adv-x="512" />
<glyph unicode="&#xa0;" horiz-adv-x="512" />
<glyph unicode="!" d="M41 133q11 64 62 107t118 43q63 0 100.5 -46.5t26.5 -109.5q-12 -66 -62.5 -109t-119.5 -43q-63 0 -99.5 46t-25.5 112zM164 451l55 573l72 410h266l-72 -410l-147 -573h-174z" />
<glyph unicode="&#x22;" horiz-adv-x="727" d="M207 983l47 451h215l-109 -451h-153zM535 983l47 451h215l-109 -451h-153z" />
<glyph unicode="#" horiz-adv-x="1249" d="M39 440l59 174h234l69 205h-233l59 174h234l117 338h182l-117 -338h229l117 338h182l-116 -338h229l-59 -174h-230l-69 -205h229l-57 -174h-232l-116 -338h-183l117 338h-229l-117 -338h-182l116 338h-233zM514 614h229l70 205h-229z" />
<glyph unicode="$" horiz-adv-x="1146" d="M25 297l213 109q52 -172 235 -199l76 424q-32 14 -56 25.5t-54.5 27.5t-53 31t-48.5 34t-44 39.5t-35.5 44.5t-28 51.5t-17.5 58t-6.5 67t7.5 75.5q34 181 174 277q139 95 309 98l31 178h133l-35 -190q114 -26 196.5 -96.5t125.5 -175.5l-209 -109q-57 114 -152 150 l-71 -404q173 -80 233 -131q148 -124 111 -328q-34 -173 -166.5 -271.5t-327.5 -109.5l-30 -178h-134l33 185q-157 19 -262.5 101t-146.5 216zM453 1065q-13 -66 21.5 -111.5t117.5 -85.5l63 363q-77 -6 -133.5 -51t-68.5 -115zM606 205q85 13 141 60.5t70 115.5 q17 66 -19.5 111.5t-125.5 85.5z" />
<glyph unicode="%" horiz-adv-x="1529" d="M168 213l1126 1053l111 -70l-1129 -1053zM213 1135q21 136 127 229q110 96 262 96q147 0 225 -106q81 -107 54 -240q-27 -134 -131 -221q-104 -88 -254 -88q-145 0 -224 98q-80 102 -59 232zM403 1133q-12 -62 21.5 -105t95.5 -43q63 0 112 43t60 105q11 64 -21.5 106.5 t-97.5 42.5q-63 0 -111 -43t-59 -106zM723 311q21 136 127 228q109 92 260 92q146 0 223 -105q80 -103 56 -237q-24 -131 -132 -223q-108 -91 -251 -91q-147 0 -226 101q-78 101 -57 235zM911 303q-11 -63 22.5 -105t96.5 -42t112 42.5t60 104.5q11 64 -23 107t-96 43 q-63 0 -112 -43.5t-60 -106.5z" />
<glyph unicode="&#x26;" horiz-adv-x="1386" d="M86 418q49 257 334 395q-69 124 -45 270q27 170 162 275q132 102 319 102q159 0 269 -76.5t157 -222.5l-211 -112q-56 182 -231 182q-90 0 -155 -48.5t-77 -133.5q-15 -109 82 -238l277 -369q64 98 120 250l189 -119q-68 -170 -178 -307l162 -215l-201 -104l-123 164 q-188 -138 -424 -138q-225 0 -344 125q-117 126 -82 320zM326 420q-19 -103 43 -165t186 -62q138 0 256 83l-283 375q-178 -76 -202 -231z" />
<glyph unicode="'" horiz-adv-x="399" d="M207 983l47 451h215l-109 -451h-153z" />
<glyph unicode="(" horiz-adv-x="602" d="M152 733q83 466 387 905h221q-304 -446 -387 -921.5t61 -921.5h-221q-146 450 -61 938z" />
<glyph unicode=")" horiz-adv-x="600" d="M-86 -205q304 446 387 921.5t-61 921.5h221q146 -450 61 -938q-83 -466 -387 -905h-221z" />
<glyph unicode="*" horiz-adv-x="813" d="M217 1100l27 147l182 -12l-84 147l135 78l60 -170l120 170l119 -78l-135 -147l188 12l-26 -147l-185 12l84 -147l-133 -78l-59 170l-121 -170l-121 78l135 147z" />
<glyph unicode="+" horiz-adv-x="1126" d="M131 612l37 209h346l61 346h209l-61 -346h346l-37 -209h-346l-61 -346h-209l61 346h-346z" />
<glyph unicode="," horiz-adv-x="542" d="M-35 -287l178 533h246l-237 -533h-187z" />
<glyph unicode="-" horiz-adv-x="1044" d="M145 516l37 213h758l-37 -213h-758z" />
<glyph unicode="." d="M41 133q11 64 62 107t118 43q63 0 100.5 -46.5t26.5 -109.5q-12 -66 -62.5 -109t-119.5 -43q-63 0 -99.5 46t-25.5 112z" />
<glyph unicode="/" horiz-adv-x="1075" d="M-55 -205l1136 1843h121l-1136 -1843h-121z" />
<glyph unicode="0" horiz-adv-x="1294" d="M121 735q59 337 237 531q179 194 447 194q263 0 381 -213q118 -208 59 -549q-59 -339 -237 -532q-175 -193 -445 -193q-263 0 -383 211q-118 209 -59 551zM356 717q-43 -248 17.5 -381t218.5 -133q159 0 266.5 132.5t151.5 381.5q43 248 -17.5 381t-218.5 133 q-159 0 -266.5 -132.5t-151.5 -381.5z" />
<glyph unicode="1" horiz-adv-x="761" d="M166 1300l399 134h205l-252 -1434h-235l206 1176v-2l-301 -82z" />
<glyph unicode="2" horiz-adv-x="1085" d="M-27 0l33 184l590 510q218 190 238 316q18 102 -32.5 161.5t-146.5 59.5q-167 0 -293 -182l-186 120q187 291 510 291q183 0 303 -129q120 -126 82 -332q-22 -120 -96 -223t-217 -225l-381 -324h581l-40 -227h-945z" />
<glyph unicode="3" horiz-adv-x="1105" d="M8 270l213 113q46 -180 256 -180q121 0 203.5 62.5t101.5 168.5t-41.5 168t-181.5 62h-55l-70 143l369 405h-586l39 222h881l-35 -201l-352 -389q145 -44 220.5 -158t47.5 -268q-41 -216 -197 -330q-157 -115 -368 -115q-168 0 -285.5 76.5t-159.5 220.5z" />
<glyph unicode="4" horiz-adv-x="1177" d="M2 258l39 219l653 957h267l-654 -957h438l66 373h238l-66 -373h164l-39 -219h-164l-45 -258h-237l45 258h-705z" />
<glyph unicode="5" horiz-adv-x="1120" d="M20 281l216 112q43 -190 266 -190q119 0 200.5 62.5t100.5 168.5t-40.5 168t-178.5 62h-418l188 770h799l-37 -222h-575l-80 -319h174q188 0 313 -131q127 -133 90 -344q-41 -217 -196 -330q-157 -115 -365 -115q-170 0 -290 79t-167 229z" />
<glyph unicode="6" horiz-adv-x="1118" d="M47 479q30 173 141 293l562 662h284l-411 -482h4q213 0 340 -145q128 -147 88 -361q-40 -216 -197 -346q-157 -127 -383 -127q-223 0 -346 144q-122 147 -82 362zM283 463q-23 -121 38 -193.5t183 -72.5q119 0 205.5 72.5t109.5 193.5q20 121 -42 193.5t-181 72.5 q-120 0 -206.5 -72.5t-106.5 -193.5z" />
<glyph unicode="7" horiz-adv-x="1003" d="M100 0l697 1208h-643l39 226h911l-35 -205l-709 -1229h-260z" />
<glyph unicode="8" horiz-adv-x="1150" d="M53 414q40 230 275 338q-148 115 -113 309q34 194 180 297q147 102 342 102q183 0 303 -114q119 -113 84 -310t-219 -299q189 -127 152 -356q-36 -195 -186.5 -301.5t-381.5 -106.5q-219 0 -346 121q-125 122 -90 320zM293 420q-18 -109 45 -166t182 -57q120 0 202.5 59 t102.5 164q18 104 -45.5 163.5t-181.5 59.5q-117 0 -203 -59q-85 -60 -102 -164zM449 1038q-17 -90 36 -144t148 -54q98 0 167.5 53.5t86.5 144.5q17 94 -35.5 146.5t-149.5 52.5q-96 0 -166 -53.5t-87 -145.5z" />
<glyph unicode="9" horiz-adv-x="1120" d="M135 989q41 218 197 344q157 127 385 127q220 0 344 -145q124 -146 84 -363q-26 -171 -148 -299l-555 -653h-282l407 481h-4q-214 0 -342 146q-126 148 -86 362zM371 971q-20 -121 42 -193.5t181 -72.5q120 0 207.5 73t107.5 193q20 121 -41 193.5t-180 72.5 q-122 0 -209.5 -72.5t-107.5 -193.5z" />
<glyph unicode=":" d="M41 133q11 64 62 107t118 43q63 0 100.5 -46.5t26.5 -109.5q-12 -66 -62.5 -109t-119.5 -43q-63 0 -99.5 46t-25.5 112zM176 901q11 64 62 107t118 43q63 0 100.5 -46.5t26.5 -109.5q-12 -66 -62.5 -109t-119.5 -43q-63 0 -99.5 46t-25.5 112z" />
<glyph unicode=";" horiz-adv-x="548" d="M-35 -287l178 533h246l-237 -533h-187zM203 901q11 64 62 107t118 43q63 0 100.5 -46.5t26.5 -109.5q-12 -66 -62.5 -109t-119.5 -43q-63 0 -99.5 46t-25.5 112z" />
<glyph unicode="&#x3c;" horiz-adv-x="1075" d="M121 614l37 205l938 379l-45 -246l-662 -247l576 -248l-39 -221z" />
<glyph unicode="=" horiz-adv-x="1085" d="M84 403l37 209h880l-38 -209h-879zM158 823l37 209h880l-37 -209h-880z" />
<glyph unicode="&#x3e;" horiz-adv-x="1075" d="M55 236l43 245l662 248l-574 248l39 221l801 -379l-16 -102l-19 -103z" />
<glyph unicode="?" horiz-adv-x="1118" d="M195 1157q74 144 213.5 223.5t308.5 79.5q187 0 299 -112q118 -115 84 -297q-13 -82 -61.5 -156t-116.5 -129q-16 -13 -60.5 -47t-64.5 -50.5t-55 -48t-52 -54.5t-33.5 -54t-21.5 -61h-236q13 83 61.5 158t114.5 128q21 17 60.5 48t63.5 50t56 48.5t51 53.5t35 54.5 t21 61.5q13 85 -35.5 131.5t-142.5 46.5q-200 0 -295 -195zM307 133q11 64 62 107t118 43q63 0 100.5 -46.5t26.5 -109.5q-12 -66 -62.5 -109t-119.5 -43q-63 0 -99.5 46t-25.5 112z" />
<glyph unicode="@" horiz-adv-x="1607" d="M76 530q53 309 301 514q250 209 569 209q214 0 363 -110q146 -106 204.5 -266t26.5 -338q-37 -209 -142 -317.5t-249 -108.5q-89 0 -149.5 42t-73.5 119q-98 -94 -230 -94q-131 0 -207 101q-74 103 -47 243q25 145 125 232q104 90 232 90q120 0 192 -96l15 75h188 l-82 -463q-30 -165 94 -165q91 0 162 91t102 265q47 272 -106 453q-153 182 -426 182q-284 0 -514 -193q-226 -192 -279 -479q-53 -293 117 -487q169 -193 475 -193q193 0 350 53l-12 -69q-154 -49 -348 -49q-333 0 -522 219q-187 218 -129 540zM633 512q-13 -71 24 -115.5 t107 -44.5q68 0 120 44.5t64 115.5q13 71 -23 116.5t-104 45.5q-70 0 -123 -45.5t-65 -116.5z" />
<glyph unicode="A" horiz-adv-x="1341" d="M-80 0l772 1434h283l266 -1434h-252l-47 289h-610l-154 -289h-258zM451 510h454l-106 655z" />
<glyph unicode="B" horiz-adv-x="1249" d="M53 0l252 1434h545q181 0 289 -117q89 -94 89 -225q0 -32 -5 -66q-27 -185 -195 -289q145 -93 145 -267q0 -34 -6 -71q-24 -172 -161 -286q-134 -113 -349 -113h-604zM328 221h366q90 0 159 58t83 143q5 23 5 44q0 58 -35 100q-47 58 -134 57h-375zM436 836h328 q81 0 143 53.5t80 134.5q3 19 3 36q0 56 -34 98q-46 54 -131 54h-323z" />
<glyph unicode="C" horiz-adv-x="1503" d="M111 737q52 313 295 518q242 205 552 205q202 0 353 -91t225 -253l-213 -112q-108 227 -383 227q-222 0 -391 -146q-164 -142 -205 -368q-10 -57 -10 -109q0 -151 86 -260q118 -145 334 -145q290 0 460 237l193 -125q-116 -160 -293.5 -251t-376.5 -91q-326 0 -504 224 q-134 172 -134 399q0 68 12 141z" />
<glyph unicode="D" horiz-adv-x="1468" d="M53 0l252 1434h563q284 0 449 -220q126 -164 126 -377q0 -68 -13 -141q-52 -302 -281 -499t-533 -197h-563zM328 225h319q208 0 363 140q154 139 192 358q10 57 10 108q0 141 -77 240q-101 137 -306 137h-327z" />
<glyph unicode="E" horiz-adv-x="1085" d="M53 0l252 1434h860l-39 -226h-624l-66 -372h574l-39 -222h-574l-69 -389h637l-41 -225h-871z" />
<glyph unicode="F" horiz-adv-x="1060" d="M53 0l252 1434h840l-39 -226h-604l-72 -401h584l-39 -225h-584l-102 -582h-236z" />
<glyph unicode="G" horiz-adv-x="1611" d="M113 743q53 311 293 514q244 203 557 203q208 0 360.5 -91t235.5 -259l-216 -113q-120 234 -399 234q-226 0 -393 -144q-165 -143 -205 -366q-10 -57 -10 -109q0 -153 88 -264q118 -145 350 -145q193 0 327 86t195 241h-471l37 211h717l-16 -98q-53 -300 -275 -485 q-221 -185 -534 -185q-334 0 -516 226q-138 171 -138 398q0 70 13 146z" />
<glyph unicode="H" horiz-adv-x="1372" d="M53 0l252 1434h236l-103 -588h615l102 588h236l-252 -1434h-236l109 621h-615l-108 -621h-236z" />
<glyph unicode="I" d="M53 0l252 1434h236l-252 -1434h-236z" />
<glyph unicode="J" horiz-adv-x="1150" d="M25 246l215 116q46 -159 237 -159q126 0 202.5 60t96.5 171l176 1000h236l-176 -1002q-40 -228 -186 -343.5t-367 -115.5q-335 0 -434 273z" />
<glyph unicode="K" horiz-adv-x="1232" d="M53 0l252 1434h236l-111 -633l660 633h288l-729 -705l484 -729h-254l-467 698l-123 -698h-236z" />
<glyph unicode="L" horiz-adv-x="993" d="M53 0l252 1434h236l-213 -1209h585l-41 -225h-819z" />
<glyph unicode="M" horiz-adv-x="1658" d="M53 0l252 1434h248l295 -727l561 727h268l-252 -1434h-235l180 1020l-565 -719h-29l-305 739l-182 -1040h-236z" />
<glyph unicode="N" horiz-adv-x="1382" d="M53 0l252 1434h178l510 -985l172 985h236l-252 -1434h-178l-508 985l-174 -985h-236z" />
<glyph unicode="O" horiz-adv-x="1634" d="M111 737q56 317 297 518q242 205 567 205q310 0 491 -227q141 -177 141 -406q0 -66 -12 -135q-59 -318 -299 -518q-242 -201 -567 -201q-309 0 -491 226q-140 174 -140 398q0 68 13 140zM346 717q-10 -56 -10 -107q0 -151 88 -262q121 -145 336 -145q221 0 389 143 q170 142 211 367q10 54 10 104q0 152 -92 264q-120 150 -340 150q-214 0 -385 -148q-166 -141 -207 -366z" />
<glyph unicode="P" horiz-adv-x="1208" d="M53 0l252 1434h510q212 0 326 -138q90 -109 90 -261q0 -40 -6 -83q-35 -203 -189 -331q-153 -129 -391 -129h-270l-86 -492h-236zM414 713h256q129 0 214.5 71.5t106.5 188.5q5 28 5 53q0 74 -42 122q-56 64 -172 64h-280z" />
<glyph unicode="Q" horiz-adv-x="1644" d="M111 737q55 312 299 518q245 205 565 205q310 0 491 -227q141 -177 141 -406q0 -65 -12 -135q-52 -290 -272 -489l115 -144l-178 -139l-121 152q-191 -99 -410 -99q-301 0 -489 226q-142 176 -142 400q0 67 13 138zM346 717q-10 -56 -10 -107q0 -151 88 -262 q121 -145 336 -145q125 0 235 49l-217 272l178 138l228 -285q138 138 176 336q10 54 10 104q0 151 -92 264q-120 150 -340 150q-214 0 -385 -148q-166 -141 -207 -366z" />
<glyph unicode="R" horiz-adv-x="1255" d="M53 0l252 1434h563q187 0 306 -146q94 -112 94 -253q0 -41 -8 -83q-26 -142 -121.5 -249.5t-235.5 -151.5l225 -551h-239l-211 522h-297l-92 -522h-236zM418 733h338q97 0 174 69.5t96 170.5q5 25 5 48q0 69 -43 121q-57 70 -157 70h-329z" />
<glyph unicode="S" horiz-adv-x="1198" d="M29 326l213 110q52 -235 325 -235q123 0 200 48.5t95 131.5q5 21 5 40q-1 22 -7 40q-12 34 -49 63t-88 51t-135 50q-34 12 -64 23t-62 25.5t-58.5 30t-53 34t-47 39.5t-39 45.5t-30 53t-18.5 60.5q-7 29 -7 63q0 39 8 82q35 189 178 283q149 96 332 96q173 0 294 -83.5 t173 -229.5l-207 -109q-74 195 -278 195q-99 0 -168 -45t-86 -123q-4 -20 -5 -38q0 -59 47 -99q60 -50 224 -109q213 -77 295 -153q95 -90 95 -222q0 -41 -9 -86q-35 -183 -183 -284t-368 -101q-211 0 -345.5 93t-176.5 260z" />
<glyph unicode="T" horiz-adv-x="1105" d="M154 1208l39 226h1044l-39 -226h-403l-213 -1208h-236l213 1208h-405z" />
<glyph unicode="U" horiz-adv-x="1333" d="M117 475l170 959h235l-166 -945q-7 -36 -6 -68q0 -86 46 -142q64 -76 214 -76t243.5 77.5t117.5 208.5l166 945h235l-170 -959q-40 -241 -207 -373q-163 -129 -397 -129q-248 0 -385 140q-105 110 -105 266q0 46 9 96z" />
<glyph unicode="V" horiz-adv-x="1277" d="M172 1434h244l170 -1153l577 1153h267l-740 -1434h-282z" />
<glyph unicode="W" horiz-adv-x="2045" d="M203 1434h235l107 -1125l522 1125h217l129 -1125l500 1125h254l-658 -1434h-272l-121 1047l-487 -1047h-273z" />
<glyph unicode="X" horiz-adv-x="1228" d="M-59 0l583 750l-305 684h252l213 -480l373 480h278l-551 -707l324 -727h-252l-231 520l-406 -520h-278z" />
<glyph unicode="Y" horiz-adv-x="1214" d="M172 1434h252l231 -564l430 564h281l-618 -791l-113 -643h-236l113 647z" />
<glyph unicode="Z" horiz-adv-x="1085" d="M-14 0l37 195l819 1013h-627l39 226h922l-33 -195l-819 -1014h655l-39 -225h-954z" />
<glyph unicode="[" horiz-adv-x="614" d="M-14 -205l325 1843h461l-37 -213h-239l-252 -1417h241l-39 -213h-460z" />
<glyph unicode="\" horiz-adv-x="1075" d="M270 1638h111l496 -1843h-111z" />
<glyph unicode="]" horiz-adv-x="614" d="M-86 -205l39 213h237l252 1417h-239l37 213h460l-325 -1843h-461z" />
<glyph unicode="^" horiz-adv-x="1105" d="M129 778l496 656h180l266 -656h-233l-156 404l-301 -404h-252z" />
<glyph unicode="_" horiz-adv-x="1064" d="M-78 -330l37 213h924l-37 -213h-924z" />
<glyph unicode="`" horiz-adv-x="514" d="M203 1434h260l123 -277h-209z" />
<glyph unicode="a" horiz-adv-x="1292" d="M76 535q40 228 203 372t378 144q239 0 347 -193l28 166h221l-180 -1024h-221l20 121q-145 -148 -374 -148q-225 0 -344 168q-89 125 -89 282q0 54 11 112zM297 518q-6 -35 -6 -68q0 -101 57 -171q77 -95 215 -95q131 0 236 81.5t137 209.5l10 60q2 20 2 39q0 112 -67 183 q-78 83 -211 83q-131 0 -240 -86q-106 -84 -133 -236z" />
<glyph unicode="b" horiz-adv-x="1290" d="M39 0l252 1434h221l-96 -543q154 160 377 160q217 0 337 -164q96 -127 96 -288q0 -48 -9 -99q-38 -225 -199 -375q-166 -152 -391 -152q-236 0 -338 193l-29 -166h-221zM350 512q-6 -35 -6 -67q0 -100 57 -169q77 -92 215 -92q139 0 248 95q107 93 131 239q6 35 6 67 q0 99 -57 165q-75 90 -213 90q-139 0 -248 -92t-133 -236z" />
<glyph unicode="c" horiz-adv-x="1114" d="M76 535q41 228 211 370q178 146 405 146q154 0 266 -71.5t160 -195.5l-198 -102q-59 152 -248 152q-135 0 -244 -89q-107 -87 -131 -227q-5 -32 -5 -61q0 -100 56 -172q74 -95 211 -95q89 0 166 42.5t127 117.5l178 -114q-77 -126 -207 -194.5t-286 -68.5 q-235 0 -367 164q-103 128 -103 295q0 50 9 103z" />
<glyph unicode="d" horiz-adv-x="1294" d="M76 535q40 228 203 372t378 144q241 0 347 -195l102 578h221l-252 -1434h-221l23 123q-144 -150 -379 -150q-225 0 -344 168q-89 125 -89 282q0 54 11 112zM297 518q-6 -35 -6 -68q0 -101 57 -171q77 -95 217 -95q131 0 236 81.5t137 211.5l10 60q2 20 2 38 q0 111 -67 183q-78 82 -211 82t-242 -86q-106 -84 -133 -236z" />
<glyph unicode="e" horiz-adv-x="1193" d="M76 532q41 229 211 371q174 148 399 148q228 0 356 -158q97 -117 97 -273q0 -53 -11 -110q-18 -75 -24 -92h-815q1 -116 75.5 -179t200.5 -63q181 0 289 129l162 -123q-170 -209 -469 -209q-248 0 -379 162q-101 125 -101 292q0 51 9 105zM319 600h601q1 124 -65.5 187 t-182.5 63q-121 0 -215 -66.5t-138 -183.5z" />
<glyph unicode="f" horiz-adv-x="667" d="M100 811l37 213h156l4 20q37 217 173 323q122 94 315 94q24 0 49 -1l-37 -213q-20 2 -40 2q-202 0 -239 -205l-4 -20h242l-37 -213h-242l-143 -811h-221l143 811h-156z" />
<glyph unicode="g" horiz-adv-x="1294" d="M29 -188l198 102q65 -150 281 -150q149 0 241 73t117 210l19 107q-148 -160 -371 -160q-235 0 -354 162q-91 124 -91 285q0 50 9 104q35 218 196 360q166 146 377 146q121 0 214 -52.5t143 -146.5l30 172h217l-172 -977q-42 -238 -198.5 -360.5t-390.5 -122.5 q-169 0 -289.5 63.5t-175.5 184.5zM299 528q-5 -33 -5 -63q0 -99 58 -170q77 -92 219 -92q138 0 244 86t133 227q7 37 7 70q0 100 -62 166q-84 90 -219 90t-244 -86q-110 -87 -131 -228z" />
<glyph unicode="h" horiz-adv-x="1165" d="M39 0l252 1434h221l-94 -533q129 150 334 150q176 0 268 -115q70 -85 70 -211q0 -45 -9 -96l-110 -629h-221l106 606q6 34 6 63q0 71 -35 114q-49 61 -159 61q-117 0 -200 -70t-108 -205l-100 -569h-221z" />
<glyph unicode="i" horiz-adv-x="477" d="M39 0l180 1024h221l-180 -1024h-221zM246 1283q8 58 55 97q33 32 77 38q14 2 27 3q29 -1 53 -11q36 -14 56 -49q13 -23 14 -51q0 -14 -4 -28q-11 -58 -57.5 -98.5t-106.5 -40.5h-8q-52 -1 -82 39q-26 34 -26 78q0 11 2 23z" />
<glyph unicode="j" horiz-adv-x="518" d="M-199 -436l39 213q20 -2 38 -2q73 0 118 35q57 44 76 149l186 1065h221l-186 -1065q-41 -227 -159 -319q-99 -79 -268 -79q-31 0 -65 3zM282 1283q9 58 56 97q33 32 78 38q13 3 26 3q29 0 54 -11q35 -14 55 -49q13 -23 13 -51q0 -13 -3 -28q-11 -58 -57.5 -98.5 t-106.5 -40.5h-8q-52 0 -83 39q-25 34 -25 78q0 11 1 23z" />
<glyph unicode="k" horiz-adv-x="1044" d="M39 0l252 1434h221l-150 -846l465 436h271l-535 -502l371 -522h-246l-342 492l-86 -492h-221z" />
<glyph unicode="l" horiz-adv-x="479" d="M41 0l111 633l151 862h221l-153 -868l-109 -627h-221z" />
<glyph unicode="m" horiz-adv-x="1738" d="M39 0l180 1024h221l-20 -113q128 140 309 140q198 0 266 -164q132 164 340 164q171 0 260 -115q69 -86 69 -208q0 -44 -9 -93l-111 -635h-221l109 621q6 32 6 60q0 63 -30 104q-44 59 -138 59q-100 0 -170 -65t-94 -191l-105 -588h-221l108 621q6 34 6 63q0 62 -27 102 q-40 58 -132 58q-95 0 -166.5 -60t-101.5 -174l-107 -610h-221z" />
<glyph unicode="n" horiz-adv-x="1165" d="M39 0l180 1024h221l-22 -123q129 150 334 150q176 0 268 -115q70 -85 70 -211q0 -45 -9 -96l-110 -629h-221l106 606q6 34 6 63q0 71 -35 114q-49 61 -159 61q-114 0 -197 -69t-111 -200l-100 -575h-221z" />
<glyph unicode="o" horiz-adv-x="1226" d="M78 539q43 227 219 368q175 144 405 144q227 0 359 -164q100 -123 100 -288q0 -52 -10 -107q-40 -230 -217 -375q-176 -144 -393 -144q-243 0 -375 164q-100 126 -100 287q0 55 12 115zM299 512q-6 -36 -6 -68q0 -100 56 -167q74 -89 208 -89q133 0 240 88 q108 88 135 240q7 37 7 71q0 97 -58 161q-76 88 -209 88t-240 -88q-106 -84 -133 -236z" />
<glyph unicode="p" horiz-adv-x="1292" d="M-35 -410l254 1434h221l-22 -129q150 156 375 156q215 0 337 -168q96 -129 96 -291q0 -49 -9 -100q-38 -228 -199 -373q-161 -146 -375 -146q-250 0 -352 197l-103 -580h-223zM346 487q-2 -19 -2 -38q0 -112 68 -183q79 -82 211 -82q130 0 239 86q105 83 133 238 q6 35 6 67q0 100 -57 170q-77 95 -215 95q-131 0 -236 -81.5t-137 -211.5z" />
<glyph unicode="q" horiz-adv-x="1292" d="M76 535q40 228 203 372t378 144q239 0 347 -193l28 166h221l-252 -1434h-221l94 531q-148 -148 -376 -148q-223 0 -342 168q-90 127 -90 285q0 53 10 109zM297 518q-6 -35 -6 -68q0 -101 57 -171q77 -95 215 -95q131 0 236 82t137 211l10 55q2 22 2 43q0 111 -67 181 q-81 84 -211 84q-131 0 -240 -86q-106 -84 -133 -236z" />
<glyph unicode="r" horiz-adv-x="702" d="M39 0l180 1024h221l-26 -154q119 172 332 173q7 0 14 -1l-43 -239q-16 2 -32 2q-37 -1 -75 -9q-54 -12 -106 -40t-91.5 -83t-56.5 -130l-96 -543h-221z" />
<glyph unicode="s" horiz-adv-x="966" d="M20 221l199 103q19 -69 77 -108.5t144 -39.5q167 0 185 109q1 6 1 12q0 39 -40 67q-46 32 -135 58q-72 21 -119 41t-102 57q-54 38 -76 98q-13 36 -13 79q0 30 6 63q24 133 140 211q115 80 264 80q129 0 225 -56t144 -157l-199 -101q-38 115 -182 115q-65 0 -112.5 -29 t-57.5 -82q-2 -9 -2 -17q0 -38 38 -65q46 -32 136 -59q54 -12 95.5 -26t89 -41t76 -61t42.5 -88q8 -29 8 -62q0 -28 -6 -58q-24 -139 -138.5 -215t-285.5 -76q-308 0 -402 248z" />
<glyph unicode="t" horiz-adv-x="784" d="M90 811l39 213h188l39 221l232 66l-51 -287h256l-39 -213h-254l-86 -492q-3 -18 -3 -34q0 -38 18 -58q25 -28 81 -30q18 -1 39 -1q43 0 98 3l-35 -199q-70 -9 -129 -9q-147 -1 -221 55q-78 58 -78 182q0 42 9 91l86 492h-189z" />
<glyph unicode="u" horiz-adv-x="1165" d="M84 395l111 629h221l-107 -606q-6 -33 -6 -62q-1 -71 35 -115q50 -61 160 -61q114 0 196.5 69t110.5 200l100 575h221l-180 -1024h-221l23 123q-129 -150 -334 -150q-177 0 -271 113q-68 85 -68 211q0 46 9 98z" />
<glyph unicode="v" horiz-adv-x="1003" d="M100 1024h228l121 -762l389 762h245l-553 -1024h-235z" />
<glyph unicode="w" horiz-adv-x="1587" d="M131 1024h221l82 -707l332 707h217l-2 -4l94 -703l320 707h241l-501 -1024h-217l-93 690l-325 -690h-228z" />
<glyph unicode="x" horiz-adv-x="1064" d="M-70 0l480 535l-279 489h242l184 -324l291 324h268l-454 -508l292 -516h-241l-199 350l-315 -350h-269z" />
<glyph unicode="y" horiz-adv-x="1064" d="M0 -410l37 207q11 -1 22 -1q84 0 144 41q68 46 131 157l18 29l-252 1001h228l176 -752l395 752h246l-580 -1057q-203 -378 -530 -378q-17 0 -35 1z" />
<glyph unicode="z" horiz-adv-x="927" d="M-18 0l26 147l586 668h-449l37 209h758l-25 -147l-587 -668h489l-37 -209h-798z" />
<glyph unicode="{" horiz-adv-x="733" d="M121 612l39 215q96 -5 142 27t63 125l55 315q36 209 150 295.5t323 69.5l-37 -213q-99 12 -148.5 -21.5t-66.5 -130.5l-55 -315q-18 -108 -61.5 -169.5t-118.5 -94.5q122 -63 88 -254l-56 -316q-18 -96 20.5 -130t141.5 -23l-39 -213q-195 -17 -285.5 80t-58.5 286 l55 316q17 93 -18 124.5t-133 26.5z" />
<glyph unicode="|" horiz-adv-x="507" d="M-18 -410l331 1885h222l-332 -1885h-221z" />
<glyph unicode="}" horiz-adv-x="733" d="M-88 -221l37 213q99 -12 148.5 21.5t66.5 129.5l55 316q18 108 61.5 169.5t118.5 94.5q-122 63 -88 254l56 315q18 96 -21 130.5t-141 23.5l39 213q195 17 285.5 -80.5t58.5 -286.5l-56 -315q-17 -93 18.5 -125t133.5 -27l-39 -215q-96 5 -142 -26.5t-63 -124.5l-55 -316 q-36 -209 -150 -295t-323 -69z" />
<glyph unicode="~" horiz-adv-x="1222" d="M123 631q77 194 223 246q151 53 316 -48q143 -79 212 -67q72 15 130 125l167 -88q-78 -196 -223 -248q-147 -53 -313 49q-141 80 -214 67.5t-128 -124.5z" />
<glyph unicode="&#xa1;" d="M-35 -410l72 410l147 573h174l-55 -573l-72 -410h-266zM174 897q12 66 62.5 109t119.5 43q63 0 99.5 -46t25.5 -112q-11 -64 -62 -107t-118 -43q-63 0 -100.5 46.5t-26.5 109.5z" />
<glyph unicode="&#xa2;" horiz-adv-x="1116" d="M113 739q41 229 211 371q177 145 405 145q46 0 111 -10l94 189h119l-109 -222q150 -67 211 -223l-199 -102q-34 88 -112 123l-303 -611q50 -4 55 -4q89 0 166 42.5t127 117.5l178 -115q-77 -126 -207.5 -194t-286.5 -68q-60 0 -133 17l-96 -195h-119l115 233 q-131 68 -192 204t-35 302zM334 723q-14 -93 14.5 -168.5t93.5 -116.5l295 598q-6 2 -28 2q-137 0 -244 -88q-107 -87 -131 -227z" />
<glyph unicode="&#xa3;" horiz-adv-x="1193" d="M-18 0l41 227h163l62 344h-133l37 207h131l43 238q38 217 167.5 330.5t325.5 113.5q143 0 250 -77t150 -212l-207 -108q-58 168 -219 168q-89 0 -151.5 -56t-80.5 -159l-43 -238h436l-36 -207h-435l-61 -344h696l-41 -227h-1095z" />
<glyph unicode="&#xa4;" horiz-adv-x="1118" d="M35 303l170 146q-74 117 -47 272q27 154 141 268l-117 141l80 72l119 -143q137 90 291 90q142 0 246 -84l167 141l72 -76l-170 -145q74 -117 47 -272q-27 -152 -141 -269l117 -141l-84 -70l-117 142q-134 -90 -289 -90q-145 0 -248 86l-168 -142zM377 717 q-16 -98 35 -160q52 -61 145 -61q95 0 168 61q75 66 90 160q16 98 -35 157q-52 64 -145 64q-95 0 -168 -64q-75 -63 -90 -157z" />
<glyph unicode="&#xa5;" horiz-adv-x="1214" d="M115 330l26 149h342l19 103h-342l26 149h289l-303 703h252l231 -564l430 564h281l-551 -703h293l-27 -149h-344l-18 -103h344l-27 -149h-344l-57 -330h-236l58 330h-342z" />
<glyph unicode="&#xa6;" horiz-adv-x="507" d="M-18 -410l133 758h221l-133 -758h-221zM180 717l133 758h222l-134 -758h-221z" />
<glyph unicode="&#xa7;" horiz-adv-x="1097" d="M37 35l199 106q55 -172 243 -172q174 0 195 121q11 63 -46 109.5t-200 109.5q-21 7 -31 13q-295 126 -252 374q24 151 179 244q-57 86 -35 215q26 145 137.5 225t275.5 80q130 0 230 -66t149 -188l-188 -96q-62 152 -207 152q-69 0 -117.5 -32.5t-58.5 -88.5 q-17 -56 63 -127q10 -10 58 -35l61 -31q14 -6 74 -30q303 -129 260 -371q-27 -154 -174 -248q64 -91 43 -217q-26 -150 -142.5 -230.5t-293.5 -80.5q-317 0 -422 264zM367 686q-18 -116 157 -186q164 -70 187 -82q77 50 92 129q11 65 -30 107t-140 83q-93 38 -170 78 q-81 -47 -96 -129z" />
<glyph unicode="&#xa8;" horiz-adv-x="686" d="M174 1266q9 51 51 86q43 37 94 37t80 -37q30 -36 21 -86.5t-51 -87.5q-41 -35 -92 -35t-82 35q-30 37 -21 88zM563 1266q9 51 51 86q43 37 94 37t80 -37q30 -36 21 -86.5t-51 -87.5q-41 -35 -92 -35t-82 35q-30 37 -21 88z" />
<glyph unicode="&#xa9;" horiz-adv-x="1626" d="M111 729q52 307 301 518q248 211 561 211q302 0 485 -223q183 -224 131 -530q-56 -311 -303 -521q-247 -209 -557 -209q-302 0 -489 224q-185 225 -129 530zM182 717q-52 -276 113 -477q166 -199 440 -199q282 0 508 197q224 196 277 479q47 280 -117 477 q-163 199 -438 199q-281 0 -510 -197q-227 -198 -273 -479zM455 733q27 165 155 275q129 108 297 108q104 0 192 -53.5t132 -144.5l-176 -91q-53 95 -170 95q-89 0 -155.5 -59.5t-80.5 -145.5q-14 -84 31 -144.5t129 -60.5q127 0 197 102l159 -102q-67 -91 -168 -142 t-211 -51q-170 0 -264 123q-94 125 -67 291z" />
<glyph unicode="&#xab;" horiz-adv-x="1085" d="M154 633l286 379h228l-293 -387l153 -371h-217zM524 629l289 383h227l-295 -394l152 -364h-217z" />
<glyph unicode="&#xac;" horiz-adv-x="1105" d="M121 612l37 209h901l-80 -450h-221l43 241h-680z" />
<glyph unicode="&#xad;" horiz-adv-x="1044" d="M145 516l37 213h758l-37 -213h-758z" />
<glyph unicode="&#xae;" horiz-adv-x="1626" d="M111 729q52 307 301 518q248 211 561 211q302 0 485 -223q183 -224 131 -530q-56 -311 -303 -521q-247 -209 -557 -209q-302 0 -489 224q-185 225 -129 530zM182 717q-52 -276 113 -477q166 -199 440 -199q282 0 508 197q224 196 277 479q47 280 -117 477 q-163 199 -438 199q-281 0 -510 -197q-227 -198 -273 -479zM522 338l133 758h285q122 0 193 -80q69 -75 51 -189q-27 -154 -158 -215l104 -274h-196l-78 240h-6h-96l-43 -240h-189zM782 741h86q108 0 123 90q19 91 -90 91h-88z" />
<glyph unicode="&#xaf;" horiz-adv-x="657" d="M158 1167l30 183h574l-31 -183h-573z" />
<glyph unicode="&#xb0;" horiz-adv-x="811" d="M217 1341q24 139 133 228q110 90 256 90q141 0 219 -100q81 -97 60 -236q-25 -141 -131 -230t-258 -89q-141 0 -222 100q-78 100 -57 237zM410 1331q-11 -62 21.5 -102.5t94.5 -40.5q61 0 108 40.5t58 102.5t-22 103t-95 41q-61 0 -107.5 -41t-57.5 -103z" />
<glyph unicode="&#xb1;" horiz-adv-x="1128" d="M47 133l37 209h901l-37 -209h-901zM162 782l37 209h346l53 309h209l-53 -309h346l-37 -209h-346l-55 -311h-209l55 311h-346z" />
<glyph unicode="&#xb4;" horiz-adv-x="512" d="M154 1157l204 277h273l-258 -277h-219z" />
<glyph unicode="&#xb5;" horiz-adv-x="1255" d="M-35 -410l254 1434h221l-108 -618q-14 -109 35 -167.5t153 -58.5q121 0 204.5 76t109.5 221l96 547h221l-131 -748q-6 -31 9 -49t46 -18h76l-37 -209h-115q-145 0 -192 115q-127 -142 -324 -142q-130 0 -215 70l-80 -453h-223z" />
<glyph unicode="&#xb6;" horiz-adv-x="1308" d="M152 1018q29 175 176 297q143 119 325 119h727l-34 -197h-125l-289 -1647h-209l289 1647h-185l-288 -1647h-209l172 983q-178 3 -281 136q-103 134 -69 309z" />
<glyph unicode="&#xb7;" d="M143 717q11 63 62.5 106t118.5 43q63 0 100.5 -46t26.5 -109q-12 -66 -63 -109t-120 -43q-63 0 -99.5 46t-25.5 112z" />
<glyph unicode="&#xb8;" d="M-127 -442l29 161q241 -21 256 52q12 58 -140 61l31 168h182l-16 -94q68 -14 105.5 -62t25.5 -114q-41 -206 -473 -172z" />
<glyph unicode="&#xbb;" horiz-adv-x="1087" d="M88 254l295 393l-152 365h218l155 -375l-289 -383h-227zM461 254l293 387l-154 371h217l158 -379l-287 -379h-227z" />
<glyph unicode="&#xbc;" horiz-adv-x="1673" d="M156 1346l262 88h164l-146 -820h-188l108 615l-180 -51zM158 0l1061 1434h174l-1061 -1434h-174zM903 139l31 172l360 508h211l-352 -508h176l29 162h182l-29 -162h91l-31 -172h-88l-25 -139h-182l24 139h-397z" />
<glyph unicode="&#xbd;" horiz-adv-x="1662" d="M156 1346l262 88h164l-146 -820h-188l108 615l-180 -51zM158 0l1061 1434h174l-1061 -1434h-174zM909 0l23 131l377 318q93 78 102 133q8 41 -15.5 65.5t-70.5 24.5q-89 0 -160 -115l-147 92q114 197 334 197q128 0 197.5 -76.5t49.5 -198.5q-15 -109 -178 -241 l-188 -156h307l-29 -174h-602z" />
<glyph unicode="&#xbe;" horiz-adv-x="1855" d="M74 766l166 86q41 -96 143 -96q59 0 95 27t44 75q7 47 -22 75t-86 28h-31l-55 110l182 189h-315l28 174h553l-26 -148l-187 -194q82 -29 121.5 -94.5t26.5 -151.5q-23 -126 -115.5 -192t-237.5 -66q-214 0 -284 178zM340 0l1061 1434h174l-1061 -1434h-174zM1085 139 l31 172l361 508h211l-353 -508h176l29 162h182l-28 -162h90l-31 -172h-88l-25 -139h-182l25 139h-398z" />
<glyph unicode="&#xbf;" horiz-adv-x="1118" d="M18 -27q13 81 61.5 155t115.5 128q19 15 61.5 48.5t64 51t55 48.5t51.5 54t34 54t22 61h236q-13 -83 -61 -158t-115 -130q-17 -14 -60 -46.5t-64 -49.5t-55 -48t-52 -54t-34.5 -54t-21.5 -62q-13 -85 35.5 -131.5t142.5 -46.5q200 0 295 195l195 -121 q-74 -144 -214 -223.5t-309 -79.5q-186 0 -301 112q-116 116 -82 297zM504 897q12 66 62.5 109t119.5 43q63 0 99.5 -46t25.5 -112q-11 -64 -62 -107t-118 -43q-63 0 -100.5 46.5t-26.5 109.5z" />
<glyph unicode="&#xc0;" horiz-adv-x="1341" d="M-80 0l772 1434h283l266 -1434h-252l-47 289h-610l-154 -289h-258zM451 510h454l-106 655zM608 1843h260l123 -276h-209z" />
<glyph unicode="&#xc1;" horiz-adv-x="1341" d="M-80 0l772 1434h283l266 -1434h-252l-47 289h-610l-154 -289h-258zM451 510h454l-106 655zM715 1567l205 276h272l-258 -276h-219z" />
<glyph unicode="&#xc2;" horiz-adv-x="1341" d="M-80 0l772 1434h283l266 -1434h-252l-47 289h-610l-154 -289h-258zM451 510h454l-106 655zM518 1556l266 287h232l168 -287h-223l-78 150l-138 -150h-227z" />
<glyph unicode="&#xc3;" horiz-adv-x="1341" d="M-80 0l772 1434h283l266 -1434h-252l-47 289h-610l-154 -289h-258zM451 510h454l-106 655zM530 1571q10 85 38.5 147t68 92.5t86.5 39.5t94.5 -5.5t91.5 -48.5q57 -56 91 -46.5t51 93.5h182q-13 -107 -54 -175.5t-96 -90.5t-115 -11.5t-114 52.5q-60 56 -94 46.5 t-47 -93.5h-183z" />
<glyph unicode="&#xc4;" horiz-adv-x="1341" d="M-80 0l772 1434h283l266 -1434h-252l-47 289h-610l-154 -289h-258zM451 510h454l-106 655zM557 1675q9 51 51 86q43 37 94 37t80 -37q30 -36 21 -86.5t-51 -87.5q-41 -35 -92 -35t-82 35q-30 37 -21 88zM946 1675q9 51 51 86q43 37 94 37t80 -37q30 -36 21 -86.5 t-51 -87.5q-41 -35 -92 -35t-82 35q-30 37 -21 88z" />
<glyph unicode="&#xc5;" horiz-adv-x="1341" d="M-80 0l748 1391q-78 72 -60 184q17 98 96 160.5t185 62.5q108 0 167 -69t42 -168q-18 -114 -115 -177l258 -1384h-252l-47 289h-610l-154 -289h-258zM451 510h454l-106 655zM766 1569q-6 -39 13 -62.5t59 -23.5q62 -5 93 49q25 46 6 86q-19 38 -69 35q-87 0 -102 -84z " />
<glyph unicode="&#xc6;" horiz-adv-x="1802" d="M-90 0l1110 1434h862l-39 -226h-567l-66 -372h527l-39 -222h-527l-69 -389h579l-41 -225h-809l52 289h-477l-226 -289h-270zM578 510h344l100 569z" />
<glyph unicode="&#xc7;" horiz-adv-x="1503" d="M111 737q52 313 295 518q242 205 552 205q202 0 353 -91t225 -253l-213 -112q-108 227 -383 227q-222 0 -391 -146q-164 -142 -205 -368q-40 -222 76 -369q118 -145 334 -145q290 0 460 237l193 -125q-103 -142 -256.5 -230.5t-329.5 -107.5l-12 -71q68 -14 105.5 -62 t25.5 -114q-41 -206 -473 -172l29 161q241 -21 256 52q12 58 -140 61l27 148q-284 35 -430 251q-147 218 -98 506z" />
<glyph unicode="&#xc8;" horiz-adv-x="1085" d="M53 0l252 1434h860l-39 -226h-624l-66 -372h574l-39 -222h-574l-69 -389h637l-41 -225h-871zM512 1843h260l123 -276h-209z" />
<glyph unicode="&#xc9;" horiz-adv-x="1085" d="M53 0l252 1434h860l-39 -226h-624l-66 -372h574l-39 -222h-574l-69 -389h637l-41 -225h-871zM618 1567l205 276h273l-258 -276h-220z" />
<glyph unicode="&#xca;" horiz-adv-x="1085" d="M53 0l252 1434h860l-39 -226h-624l-66 -372h574l-39 -222h-574l-69 -389h637l-41 -225h-871zM422 1556l266 287h232l167 -287h-223l-78 150l-137 -150h-227z" />
<glyph unicode="&#xcb;" horiz-adv-x="1085" d="M53 0l252 1434h860l-39 -226h-624l-66 -372h574l-39 -222h-574l-69 -389h637l-41 -225h-871zM460.5 1675q8.5 51 51.5 86q43 37 94 37t80 -37q30 -36 20.5 -86.5t-51.5 -87.5q-41 -35 -92 -35t-82 35q-29 37 -20.5 88zM849.5 1675q8.5 51 51.5 86q43 37 94 37t80 -37 q30 -36 20.5 -86.5t-51.5 -87.5q-41 -35 -92 -35t-82 35q-29 37 -20.5 88z" />
<glyph unicode="&#xcc;" d="M53 0h236l252 1434h-236zM199 1843h260l123 -276h-209z" />
<glyph unicode="&#xcd;" d="M53 0h236l252 1434h-236zM305 1567l205 276h272l-258 -276h-219z" />
<glyph unicode="&#xce;" d="M53 0l252 1434h236l-252 -1434h-236zM109 1556l266 287h231l168 -287h-223l-78 150l-137 -150h-227z" />
<glyph unicode="&#xcf;" d="M53 0l252 1434h236l-252 -1434h-236zM147.5 1675q8.5 51 51.5 86q43 37 94 37t80 -37q30 -36 20.5 -86.5t-51.5 -87.5q-41 -35 -92 -35t-82 35q-29 37 -20.5 88zM536.5 1675q8.5 51 51.5 86q43 37 94 37t80 -37q30 -36 20.5 -86.5t-51.5 -87.5q-41 -35 -92 -35t-82 35 q-29 37 -20.5 88z" />
<glyph unicode="&#xd0;" horiz-adv-x="1531" d="M68 600l36 213h156l109 621h563q283 0 448 -220q166 -216 113 -518q-52 -302 -281 -499t-532 -197h-563l104 600h-153zM391 225h320q207 0 362 140q156 141 193 358q38 212 -68 348q-101 137 -305 137h-328l-69 -395h366l-37 -213h-368z" />
<glyph unicode="&#xd1;" horiz-adv-x="1382" d="M53 0l252 1434h178l510 -985l172 985h236l-252 -1434h-178l-508 985l-174 -985h-236zM551 1571q10 85 38.5 147t68 92.5t86.5 39.5t94.5 -5.5t91.5 -48.5q57 -56 90.5 -46.5t50.5 93.5h182q-13 -107 -54 -175.5t-96 -90.5t-115 -11.5t-114 52.5q-60 56 -94 46.5 t-47 -93.5h-182z" />
<glyph unicode="&#xd2;" horiz-adv-x="1634" d="M111 737q-55 -312 127 -538t491 -226q325 0 567 201q240 200 299 518q52 313 -129 541q-181 227 -491 227q-325 0 -567 -205q-241 -201 -297 -518zM346 717q41 225 207 366q171 148 385 148q220 0 340 -150q122 -150 82 -368q-41 -225 -211 -367q-168 -143 -389 -143 q-215 0 -336 145q-118 149 -78 369zM801 1853h260l123 -276h-209z" />
<glyph unicode="&#xd3;" horiz-adv-x="1634" d="M111 737q-55 -312 127 -538t491 -226q325 0 567 201q240 200 299 518q52 313 -129 541q-181 227 -491 227q-325 0 -567 -205q-241 -201 -297 -518zM346 717q41 225 207 366q171 148 385 148q220 0 340 -150q122 -150 82 -368q-41 -225 -211 -367q-168 -143 -389 -143 q-215 0 -336 145q-118 149 -78 369zM969 1577l205 276h272l-258 -276h-219z" />
<glyph unicode="&#xd4;" horiz-adv-x="1634" d="M111 737q56 317 297 518q242 205 567 205q310 0 491 -227q181 -228 129 -541q-59 -318 -299 -518q-242 -201 -567 -201q-309 0 -491 226t-127 538zM346 717q-40 -220 78 -369q121 -145 336 -145q221 0 389 143q170 142 211 367q40 218 -82 368q-120 150 -340 150 q-214 0 -385 -148q-166 -141 -207 -366zM719 1567l266 286h232l167 -286h-223l-78 149l-137 -149h-227z" />
<glyph unicode="&#xd5;" horiz-adv-x="1634" d="M111 737q56 317 297 518q242 205 567 205q310 0 491 -227q181 -228 129 -541q-59 -318 -299 -518q-242 -201 -567 -201q-309 0 -491 226t-127 538zM346 717q-40 -220 78 -369q121 -145 336 -145q221 0 389 143q170 142 211 367q40 218 -82 368q-120 150 -340 150 q-214 0 -385 -148q-166 -141 -207 -366zM735 1581q10 85 38.5 147t68 92.5t86.5 39.5t94.5 -5.5t91.5 -48.5q57 -56 90.5 -46.5t50.5 93.5h183q-13 -107 -54 -175.5t-96 -90.5t-115 -11.5t-114 52.5q-60 56 -94 46.5t-47 -93.5h-183z" />
<glyph unicode="&#xd6;" horiz-adv-x="1634" d="M111 737q56 317 297 518q242 205 567 205q310 0 491 -227q181 -228 129 -541q-59 -318 -299 -518q-242 -201 -567 -201q-309 0 -491 226t-127 538zM346 717q-40 -220 78 -369q121 -145 336 -145q221 0 389 143q170 142 211 367q40 218 -82 368q-120 150 -340 150 q-214 0 -385 -148q-166 -141 -207 -366zM704.5 1685.5q8.5 51.5 51.5 86.5q43 37 94 37t80 -37q30 -36 20.5 -87t-51.5 -88q-41 -35 -92 -35t-82 35q-29 37 -20.5 88.5zM1093.5 1685.5q8.5 51.5 51.5 86.5q43 37 94 37t80 -37q30 -36 20.5 -87t-51.5 -88q-41 -35 -92 -35 t-82 35q-29 37 -20.5 88.5z" />
<glyph unicode="&#xd7;" horiz-adv-x="1019" d="M94 455l307 266l-215 258l160 143l219 -260l299 260l137 -143l-309 -266l217 -258l-161 -144l-220 260l-301 -260z" />
<glyph unicode="&#xd8;" horiz-adv-x="1650" d="M104 61l144 144q-176 226 -121 532q52 313 295 518q242 205 569 205q217 0 385 -125l113 113l121 -76l-133 -133q188 -232 133 -547q-56 -315 -297 -516q-241 -203 -568 -203q-228 0 -399 133l-121 -120zM362 717q-37 -195 58 -340l784 784q-104 70 -250 70 q-216 0 -387 -148q-164 -142 -205 -366zM516 279q107 -76 258 -76q223 0 391 143t209 367q38 206 -69 354z" />
<glyph unicode="&#xd9;" horiz-adv-x="1333" d="M117 475q-40 -220 96 -362q137 -140 385 -140q234 0 397 129q167 132 207 373l170 959h-235l-166 -945q-24 -131 -117.5 -208.5t-243.5 -77.5q-149 0 -213.5 76t-40.5 210l166 945h-235zM602 1843h260l123 -276h-209z" />
<glyph unicode="&#xda;" horiz-adv-x="1333" d="M117 475q-40 -220 96 -362q137 -140 385 -140q234 0 397 129q167 132 207 373l170 959h-235l-166 -945q-24 -131 -117.5 -208.5t-243.5 -77.5q-149 0 -213.5 76t-40.5 210l166 945h-235zM739 1567l205 276h273l-259 -276h-219z" />
<glyph unicode="&#xdb;" horiz-adv-x="1333" d="M117 475l170 959h235l-166 -945q-24 -134 40.5 -210t213.5 -76q150 0 243.5 77.5t117.5 208.5l166 945h235l-170 -959q-40 -241 -207 -373q-163 -129 -397 -129q-248 0 -385 140q-136 142 -96 362zM512 1556l266 287h232l168 -287h-224l-77 150l-138 -150h-227z" />
<glyph unicode="&#xdc;" horiz-adv-x="1333" d="M117 475l170 959h235l-166 -945q-24 -134 40.5 -210t213.5 -76q150 0 243.5 77.5t117.5 208.5l166 945h235l-170 -959q-40 -241 -207 -373q-163 -129 -397 -129q-248 0 -385 140q-136 142 -96 362zM550.5 1675q8.5 51 51.5 86q43 37 94 37t80 -37q30 -36 20.5 -86.5 t-51.5 -87.5q-41 -35 -92 -35t-82 35q-29 37 -20.5 88zM940 1675q9 51 51 86q43 37 94 37t80 -37q30 -36 21 -86.5t-51 -87.5q-41 -35 -92 -35t-82 35q-30 37 -21 88z" />
<glyph unicode="&#xdd;" horiz-adv-x="1214" d="M172 1434h252l231 -564l430 564h281l-618 -791l-113 -643h-236l113 647zM672 1567l205 276h272l-258 -276h-219z" />
<glyph unicode="&#xde;" horiz-adv-x="1208" d="M53 0l252 1434h236l-43 -246h276q213 0 326 -137q116 -141 82 -344q-30 -202 -187 -332q-153 -129 -393 -129h-270l-43 -246h-236zM371 467h256q129 0 214.5 71t106.5 189q20 110 -35.5 175t-173.5 65h-280z" />
<glyph unicode="&#xdf;" horiz-adv-x="1085" d="M39 0l186 1055q35 197 159 301t325 104q168 0 266 -98q99 -99 72 -238q-14 -81 -107 -192q-88 -101 -94 -137q-10 -65 88 -217q41 -60 64 -142t12 -157q-27 -159 -159 -236.5t-364 -52.5l35 196q248 -24 275 138q10 35 -8 86t-49 103l-62 104t-49 102t-8 84 q7 39 52.5 96.5t92.5 116t55 96.5q13 67 -27.5 105t-119.5 38q-85 0 -148 -50.5t-82 -153.5l-184 -1051h-221z" />
<glyph unicode="&#xe0;" horiz-adv-x="1292" d="M76 535q40 228 203 372t378 144q239 0 347 -193l28 166h221l-180 -1024h-221l20 121q-145 -148 -374 -148q-225 0 -344 168t-78 394zM297 518q-24 -146 51 -239q77 -95 215 -95q131 0 236 81.5t137 209.5l10 60q13 139 -65 222t-211 83q-131 0 -240 -86 q-106 -84 -133 -236zM578 1434h260l123 -277h-209z" />
<glyph unicode="&#xe1;" horiz-adv-x="1292" d="M76 535q40 228 203 372t378 144q239 0 347 -193l28 166h221l-180 -1024h-221l20 121q-145 -148 -374 -148q-225 0 -344 168t-78 394zM297 518q-24 -146 51 -239q77 -95 215 -95q131 0 236 81.5t137 209.5l10 60q13 139 -65 222t-211 83q-131 0 -240 -86 q-106 -84 -133 -236zM680 1157l205 277h272l-258 -277h-219z" />
<glyph unicode="&#xe2;" horiz-adv-x="1292" d="M76 535q40 228 203 372t378 144q239 0 347 -193l28 166h221l-180 -1024h-221l20 121q-145 -148 -374 -148q-225 0 -344 168t-78 394zM297 518q-24 -146 51 -239q77 -95 215 -95q131 0 236 81.5t137 209.5l10 60q13 139 -65 222t-211 83q-131 0 -240 -86 q-106 -84 -133 -236zM492 1147l266 287h231l168 -287h-223l-78 149l-137 -149h-227z" />
<glyph unicode="&#xe3;" horiz-adv-x="1292" d="M76 535q40 228 203 372t378 144q239 0 347 -193l28 166h221l-180 -1024h-221l20 121q-145 -148 -374 -148q-225 0 -344 168t-78 394zM297 518q-24 -146 51 -239q77 -95 215 -95q131 0 236 81.5t137 209.5l10 60q13 139 -65 222t-211 83q-131 0 -240 -86 q-106 -84 -133 -236zM504 1161q10 85 38.5 147t68 92.5t86.5 39.5t94.5 -5.5t91.5 -48.5q57 -56 90.5 -46t50.5 94h182q-13 -107 -54 -175.5t-96 -91t-115 -12t-114 52.5q-60 56 -94 46.5t-47 -93.5h-182z" />
<glyph unicode="&#xe4;" horiz-adv-x="1292" d="M76 535q40 228 203 372t378 144q239 0 347 -193l28 166h221l-180 -1024h-221l20 121q-145 -148 -374 -148q-225 0 -344 168t-78 394zM297 518q-24 -146 51 -239q77 -95 215 -95q131 0 236 81.5t137 209.5l10 60q13 139 -65 222t-211 83q-131 0 -240 -86 q-106 -84 -133 -236zM430 1266q9 51 51 86q43 37 94 37t80 -37q30 -36 21 -86.5t-51 -87.5q-41 -35 -92 -35t-82 35q-30 37 -21 88zM819 1266q9 51 51 86q43 37 94 37t80 -37q30 -36 21 -86.5t-51 -87.5q-41 -35 -92 -35t-82 35q-30 37 -21 88z" />
<glyph unicode="&#xe5;" horiz-adv-x="1292" d="M76 535q40 228 203 372t378 144q239 0 347 -193l28 166h221l-180 -1024h-221l20 121q-145 -148 -374 -148q-225 0 -344 168t-78 394zM297 518q-24 -146 51 -239q77 -95 215 -95q131 0 236 81.5t137 209.5l10 60q13 139 -65 222t-211 83q-131 0 -240 -86 q-106 -84 -133 -236zM518 1350q17 98 96 160.5t185 62.5q108 0 167 -69.5t42 -168.5t-94 -161t-185 -62t-168 69.5t-43 168.5zM676 1343q-6 -39 13 -62.5t59 -23.5q62 -5 93 49q25 46 6 86q-19 38 -69 35q-87 0 -102 -84z" />
<glyph unicode="&#xe6;" horiz-adv-x="2062" d="M76 535q40 228 203 372t378 144q245 0 347 -185l28 158h211l-20 -121q148 148 374 148q213 0 328 -158q113 -155 72 -383q-5 -20 -25 -92h-815q1 -116 76 -179t199 -63q177 0 292 127l160 -123q-186 -207 -444 -207q-243 0 -350 174l-27 -147h-211l22 133 q-151 -160 -376 -160t-344 168t-78 394zM295 518q-24 -146 51 -239q77 -95 217 -95q131 0 236 81.5t137 209.5l10 60q13 139 -65 222t-211 83t-242 -86q-106 -84 -133 -236zM1190 600h598q0 121 -67 185.5t-179 64.5q-123 0 -216 -66.5t-136 -183.5z" />
<glyph unicode="&#xe7;" horiz-adv-x="1114" d="M76 535q41 228 211 370q178 146 405 146q154 0 266 -71.5t160 -195.5l-198 -102q-59 152 -248 152q-135 0 -244 -89q-107 -87 -131 -227q-21 -140 51 -233q74 -95 211 -95q89 0 166 42.5t127 117.5l178 -114q-137 -224 -420 -259l-12 -71q68 -14 105.5 -62t25.5 -114 q-41 -206 -473 -172l29 161q241 -21 256 52q12 58 -140 61l29 152q-188 41 -289 192q-99 157 -65 359z" />
<glyph unicode="&#xe8;" horiz-adv-x="1193" d="M76 532q41 229 211 371q174 148 399 148q228 0 356 -158q130 -157 86 -383q-18 -75 -24 -92h-815q1 -116 75.5 -179t200.5 -63q181 0 289 129l162 -123q-170 -209 -469 -209q-248 0 -379 162q-132 163 -92 397zM319 600h601q1 124 -65.5 187t-182.5 63q-121 0 -215 -66.5 t-138 -183.5zM483 1440h260l123 -277h-209z" />
<glyph unicode="&#xe9;" horiz-adv-x="1193" d="M76 532q41 229 211 371q174 148 399 148q228 0 356 -158q130 -157 86 -383q-18 -75 -24 -92h-815q1 -116 75.5 -179t200.5 -63q181 0 289 129l162 -123q-170 -209 -469 -209q-248 0 -379 162q-132 163 -92 397zM319 600h601q1 124 -65.5 187t-182.5 63q-121 0 -215 -66.5 t-138 -183.5zM635 1163l205 277h272l-258 -277h-219z" />
<glyph unicode="&#xea;" horiz-adv-x="1193" d="M76 532q41 229 211 371q174 148 399 148q228 0 356 -158q130 -157 86 -383q-18 -75 -24 -92h-815q1 -116 75.5 -179t200.5 -63q181 0 289 129l162 -123q-170 -209 -469 -209q-248 0 -379 162q-132 163 -92 397zM319 600h601q1 124 -65.5 187t-182.5 63q-121 0 -215 -66.5 t-138 -183.5zM410 1153l266 287h231l168 -287h-223l-78 150l-137 -150h-227z" />
<glyph unicode="&#xeb;" horiz-adv-x="1193" d="M76 532q41 229 211 371q174 148 399 148q228 0 356 -158q130 -157 86 -383q-18 -75 -24 -92h-815q1 -116 75.5 -179t200.5 -63q181 0 289 129l162 -123q-170 -209 -469 -209q-248 0 -379 162q-132 163 -92 397zM319 600h601q1 124 -65.5 187t-182.5 63q-121 0 -215 -66.5 t-138 -183.5zM432 1272q9 51 51 86q43 37 94 37t80 -37q30 -36 21 -86.5t-51 -87.5q-41 -35 -92 -35t-82 35q-30 37 -21 88zM821 1272q9 51 51 86q43 37 94.5 37t80.5 -37q30 -36 20.5 -86.5t-51.5 -87.5q-41 -35 -92 -35t-82 35q-30 37 -21 88z" />
<glyph unicode="&#xec;" horiz-adv-x="477" d="M39 0h221l180 1024h-221zM156 1434h245l54 -287h-207z" />
<glyph unicode="&#xed;" horiz-adv-x="477" d="M39 0h221l180 1024h-221zM244 1147l141 287h256l-184 -287h-213z" />
<glyph unicode="&#xee;" horiz-adv-x="477" d="M39 0l180 1024h221l-180 -1024h-221zM49 1147l236 287h231l137 -287h-219l-57 127l-96 -127h-232z" />
<glyph unicode="&#xef;" horiz-adv-x="477" d="M39 0l180 1024h221l-180 -1024h-221zM85.5 1270q8.5 51 51.5 86q43 37 94 37t80 -37q30 -36 21 -86.5t-51 -87.5q-41 -35 -92.5 -35t-82.5 35q-29 37 -20.5 88zM411.5 1270q8.5 51 51.5 86q43 37 94 37t80 -37q30 -36 20.5 -86.5t-51.5 -87.5q-41 -35 -92 -35t-82 35 q-29 37 -20.5 88z" />
<glyph unicode="&#xf0;" horiz-adv-x="1183" d="M70 498q38 215 215 340q180 125 395 90q4 0 11 -1l7 -1l-108 196l-287 -137l31 170l188 90l-104 189h229l60 -103l270 129l-31 -168l-170 -80l264 -452q89 -154 62 -314q-40 -221 -205 -348q-163 -123 -379 -123q-212 0 -350 150t-98 373zM291 481q-24 -133 49 -215 q76 -82 205 -82t220.5 74t115.5 203q15 109 -23 176q-64 113 -233 113q-132 0 -223 -71.5t-111 -197.5z" />
<glyph unicode="&#xf1;" horiz-adv-x="1165" d="M39 0l180 1024h221l-22 -123q129 150 334 150q176 0 268 -115q95 -115 61 -307l-110 -629h-221l106 606q20 116 -29 177t-159 61q-114 0 -197 -69t-111 -200l-100 -575h-221zM367 1171q13 106 53.5 175t94.5 91.5t114.5 12.5t115.5 -53q57 -56 91 -46.5t51 93.5h182 q-13 -107 -54 -175.5t-96 -90.5t-115 -11.5t-114 52.5q-60 56 -94 46t-47 -94h-182z" />
<glyph unicode="&#xf2;" horiz-adv-x="1226" d="M78 539q-46 -233 88 -402q132 -164 375 -164q217 0 393 144q177 145 217 375q41 233 -90 395q-132 164 -359 164q-230 0 -405 -144q-176 -141 -219 -368zM299 512q27 152 133 236q107 88 240 88t209 -88q78 -87 51 -232q-27 -152 -135 -240q-107 -88 -240 -88 q-134 0 -208 89t-50 235zM500 1444h260l123 -277h-209z" />
<glyph unicode="&#xf3;" horiz-adv-x="1226" d="M78 539q-46 -233 88 -402q132 -164 375 -164q217 0 393 144q177 145 217 375q41 233 -90 395q-132 164 -359 164q-230 0 -405 -144q-176 -141 -219 -368zM299 512q27 152 133 236q107 88 240 88t209 -88q78 -87 51 -232q-27 -152 -135 -240q-107 -88 -240 -88 q-134 0 -208 89t-50 235zM645 1167l205 277h272l-258 -277h-219z" />
<glyph unicode="&#xf4;" horiz-adv-x="1226" d="M78 539q43 227 219 368q175 144 405 144q227 0 359 -164q131 -162 90 -395q-40 -230 -217 -375q-176 -144 -393 -144q-243 0 -375 164q-134 169 -88 402zM299 512q-24 -146 50 -235t208 -89q133 0 240 88q108 88 135 240q27 145 -51 232q-76 88 -209 88t-240 -88 q-106 -84 -133 -236zM420 1157l266 287h232l167 -287h-223l-78 150l-137 -150h-227z" />
<glyph unicode="&#xf5;" horiz-adv-x="1226" d="M78 539q43 227 219 368q175 144 405 144q227 0 359 -164q131 -162 90 -395q-40 -230 -217 -375q-176 -144 -393 -144q-243 0 -375 164q-134 169 -88 402zM299 512q-24 -146 50 -235t208 -89q133 0 240 88q108 88 135 240q27 145 -51 232q-76 88 -209 88t-240 -88 q-106 -84 -133 -236zM457 1171q13 106 53.5 175t95 91.5t115 12.5t115.5 -53q57 -56 90.5 -46.5t50.5 93.5h182q-13 -107 -54 -175.5t-96 -90.5t-115 -11.5t-114 52.5q-60 56 -94 46t-47 -94h-182z" />
<glyph unicode="&#xf6;" horiz-adv-x="1226" d="M78 539q43 227 219 368q175 144 405 144q227 0 359 -164q131 -162 90 -395q-40 -230 -217 -375q-176 -144 -393 -144q-243 0 -375 164q-134 169 -88 402zM299 512q-24 -146 50 -235t208 -89q133 0 240 88q108 88 135 240q27 145 -51 232q-76 88 -209 88t-240 -88 q-106 -84 -133 -236zM430 1276q9 51 51 86q43 37 94 37t80 -37q30 -36 21 -86.5t-51 -87.5q-41 -35 -92 -35t-82 35q-30 37 -21 88zM819 1276q9 51 51 86q43 37 94 37t80 -37q30 -36 21 -86.5t-51 -87.5q-41 -35 -92 -35t-82 35q-30 37 -21 88z" />
<glyph unicode="&#xf7;" horiz-adv-x="1167" d="M121 612l37 209h962l-37 -209h-962zM403 328q10 63 59.5 104t112.5 41t99.5 -45.5t25.5 -108.5q-12 -63 -61.5 -103t-112.5 -40t-99 44.5t-24 107.5zM541 1114q11 63 59.5 104.5t114.5 41.5q61 0 97.5 -45.5t25.5 -108.5t-58.5 -103t-113.5 -40q-63 0 -99.5 44t-25.5 107 z" />
<glyph unicode="&#xf8;" horiz-adv-x="1226" d="M55 45l105 102q-125 162 -82 392q43 227 219 368q175 144 405 144q165 0 287 -93l84 82l107 -61l-109 -107q117 -156 80 -380q-41 -231 -213 -375t-397 -144q-175 0 -297 93l-84 -82zM299 512q-21 -112 27 -203l497 488q-65 39 -151 39q-133 0 -240 -88 q-106 -84 -133 -236zM408 225q64 -37 149 -37q133 0 240 88q108 88 135 240q21 115 -25 197z" />
<glyph unicode="&#xf9;" horiz-adv-x="1165" d="M84 395l111 629h221l-107 -606q-20 -116 29.5 -177t159.5 -61q114 0 196.5 69t110.5 200l100 575h221l-180 -1024h-221l23 123q-129 -150 -334 -150q-177 0 -271 113q-93 116 -59 309zM428 1434h260l123 -277h-209z" />
<glyph unicode="&#xfa;" horiz-adv-x="1165" d="M84 395l111 629h221l-107 -606q-20 -116 29.5 -177t159.5 -61q114 0 196.5 69t110.5 200l100 575h221l-180 -1024h-221l23 123q-129 -150 -334 -150q-177 0 -271 113q-93 116 -59 309zM571 1157l205 277h273l-258 -277h-220z" />
<glyph unicode="&#xfb;" horiz-adv-x="1165" d="M84 395l111 629h221l-107 -606q-20 -116 29.5 -177t159.5 -61q114 0 196.5 69t110.5 200l100 575h221l-180 -1024h-221l23 123q-129 -150 -334 -150q-177 0 -271 113q-93 116 -59 309zM338 1147l266 287h232l168 -287h-224l-78 149l-137 -149h-227z" />
<glyph unicode="&#xfc;" horiz-adv-x="1165" d="M84 395l111 629h221l-107 -606q-20 -116 29.5 -177t159.5 -61q114 0 196.5 69t110.5 200l100 575h221l-180 -1024h-221l23 123q-129 -150 -334 -150q-177 0 -271 113q-93 116 -59 309zM376.5 1266q8.5 51 51.5 86q43 37 94 37t80 -37q30 -36 20.5 -86.5t-51.5 -87.5 q-41 -35 -92 -35t-82 35q-29 37 -20.5 88zM765.5 1266q8.5 51 51.5 86q43 37 94 37t80 -37q30 -36 21 -86.5t-51 -87.5q-41 -35 -92.5 -35t-82.5 35q-29 37 -20.5 88z" />
<glyph unicode="&#xfd;" horiz-adv-x="1064" d="M0 -410l37 207q98 -6 166 40t131 157l18 29l-252 1001h228l176 -752l395 752h246l-580 -1057q-214 -398 -565 -377zM518 1157l205 277h272l-258 -277h-219z" />
<glyph unicode="&#xfe;" horiz-adv-x="1292" d="M-35 -410l326 1844h221l-94 -541q149 158 375 158q215 0 337 -168q124 -168 87 -391q-38 -228 -199 -373q-161 -146 -375 -146q-246 0 -352 195l-103 -578h-223zM346 489q-13 -138 65.5 -221.5t211.5 -83.5q130 0 239 86q105 83 133 238q24 144 -51 237q-77 95 -215 95 q-133 0 -237 -82q-102 -82 -136 -213z" />
<glyph unicode="&#xff;" horiz-adv-x="1064" d="M0 -410l37 207q98 -6 166 40t131 157l18 29l-252 1001h228l176 -752l395 752h246l-580 -1057q-214 -398 -565 -377zM315.5 1266q8.5 51 51.5 86q43 37 94 37t80 -37q30 -36 20.5 -86.5t-51.5 -87.5q-41 -35 -92 -35t-82 35q-29 37 -20.5 88zM704.5 1266q8.5 51 51.5 86 q43 37 94 37t80 -37q30 -36 20.5 -86.5t-51.5 -87.5q-41 -35 -92 -35t-82 35q-29 37 -20.5 88z" />
<glyph unicode="&#x152;" horiz-adv-x="1875" d="M111 733q56 313 295 518q244 209 548 209q124 0 203 -26h799l-39 -226h-563l-66 -372h522l-38 -222h-523l-69 -389h575l-41 -225h-809q-95 -27 -203 -27q-305 0 -477 224q-169 225 -114 536zM346 717q-40 -222 70 -369q109 -145 321 -145q110 0 209 30l170 967 q-79 31 -192 31q-211 0 -377 -146q-160 -141 -201 -368z" />
<glyph unicode="&#x153;" horiz-adv-x="2052" d="M76 528q41 224 207 371q172 152 411 152q132 0 233.5 -64t153.5 -176q86 114 210 177t270 63q213 0 340 -160q126 -157 86 -381q-16 -64 -25 -92h-815q1 -116 75.5 -179t200.5 -63q181 0 289 129l162 -123q-81 -99 -203 -154t-256 -55q-151 0 -258.5 63.5t-159.5 178.5 q-82 -115 -206 -178.5t-267 -63.5q-241 0 -364 164q-124 165 -84 391zM297 512q-25 -141 48 -232.5t212 -91.5q134 0 244 93q109 92 133 231q24 141 -51 231q-78 93 -211 93q-136 0 -246 -93q-105 -88 -129 -231zM1178 600h600q1 124 -65.5 187t-182.5 63 q-121 0 -214.5 -66.5t-137.5 -183.5z" />
<glyph unicode="&#x178;" horiz-adv-x="1214" d="M172 1434h252l231 -564l430 564h281l-618 -791l-113 -643h-236l113 647zM489.5 1675q8.5 51 51.5 86q43 37 94 37t80 -37q30 -36 20.5 -86.5t-51.5 -87.5q-41 -35 -92 -35t-82 35q-29 37 -20.5 88zM878.5 1675q8.5 51 51.5 86q43 37 94 37t80 -37q30 -36 20.5 -86.5 t-51.5 -87.5q-41 -35 -92 -35t-82 35q-29 37 -20.5 88z" />
<glyph unicode="&#x2c6;" horiz-adv-x="747" d="M154 1147l266 287h231l168 -287h-223l-78 149l-137 -149h-227z" />
<glyph unicode="&#x2dc;" horiz-adv-x="735" d="M168 1161q10 85 38.5 147t68 92.5t86.5 39.5t94.5 -5.5t91.5 -48.5q57 -56 90.5 -46t50.5 94h182q-13 -107 -54 -175.5t-95.5 -91t-114.5 -12t-114 52.5q-60 56 -94.5 46.5t-47.5 -93.5h-182z" />
<glyph unicode="&#x2000;" horiz-adv-x="931" />
<glyph unicode="&#x2001;" horiz-adv-x="1863" />
<glyph unicode="&#x2002;" horiz-adv-x="931" />
<glyph unicode="&#x2003;" horiz-adv-x="1863" />
<glyph unicode="&#x2004;" horiz-adv-x="621" />
<glyph unicode="&#x2005;" horiz-adv-x="465" />
<glyph unicode="&#x2006;" horiz-adv-x="310" />
<glyph unicode="&#x2007;" horiz-adv-x="310" />
<glyph unicode="&#x2008;" horiz-adv-x="232" />
<glyph unicode="&#x2009;" horiz-adv-x="372" />
<glyph unicode="&#x200a;" horiz-adv-x="103" />
<glyph unicode="&#x2010;" horiz-adv-x="1044" d="M145 516l37 213h758l-37 -213h-758z" />
<glyph unicode="&#x2011;" horiz-adv-x="1044" d="M145 516l37 213h758l-37 -213h-758z" />
<glyph unicode="&#x2012;" horiz-adv-x="1044" d="M145 516l37 213h758l-37 -213h-758z" />
<glyph unicode="&#x2013;" horiz-adv-x="1294" d="M145 516l37 213h1008l-37 -213h-1008z" />
<glyph unicode="&#x2014;" horiz-adv-x="1499" d="M145 516l37 213h1213l-37 -213h-1213z" />
<glyph unicode="&#x2018;" horiz-adv-x="544" d="M176 901l238 533h186l-178 -533h-246z" />
<glyph unicode="&#x2019;" horiz-adv-x="544" d="M176 901l178 533h246l-238 -533h-186z" />
<glyph unicode="&#x201a;" horiz-adv-x="542" d="M-35 -287l178 533h246l-237 -533h-187z" />
<glyph unicode="&#x201c;" horiz-adv-x="892" d="M176 901l238 533h186l-178 -533h-246zM524 901l238 533h186l-178 -533h-246z" />
<glyph unicode="&#x201d;" horiz-adv-x="892" d="M176 901l178 533h246l-238 -533h-186zM524 901l178 533h246l-237 -533h-187z" />
<glyph unicode="&#x201e;" horiz-adv-x="890" d="M-35 -287l178 533h246l-237 -533h-187zM313 -287l179 533h245l-237 -533h-187z" />
<glyph unicode="&#x2022;" horiz-adv-x="696" d="M131 729q20 105 105.5 174.5t195.5 69.5q103 0 166 -78q62 -77 41 -182q-19 -109 -103 -180.5t-196 -71.5q-104 0 -166 80q-61 79 -43 188z" />
<glyph unicode="&#x2026;" horiz-adv-x="1402" d="M41 133q11 64 62 107t118 43q63 0 100.5 -46.5t26.5 -109.5q-12 -66 -62.5 -109t-119.5 -43q-63 0 -99.5 46t-25.5 112zM481 133q11 63 62.5 106.5t118.5 43.5q63 0 100 -46.5t26 -109.5q-12 -66 -62.5 -109t-119.5 -43q-63 0 -99.5 46t-25.5 112zM922 133q11 64 62 107 t118 43q63 0 100.5 -46.5t26.5 -109.5q-12 -66 -62.5 -109t-119.5 -43q-63 0 -99.5 46t-25.5 112z" />
<glyph unicode="&#x202f;" horiz-adv-x="372" />
<glyph unicode="&#x2039;" horiz-adv-x="716" d="M154 633l290 379h228l-297 -387l155 -371h-217z" />
<glyph unicode="&#x203a;" horiz-adv-x="718" d="M88 254l297 387l-156 371h217l160 -379l-291 -379h-227z" />
<glyph unicode="&#x205f;" horiz-adv-x="465" />
<glyph unicode="&#x20ac;" horiz-adv-x="1247" d="M41 532l25 146h133q1 13 8 55q3 22 8 39h-133l27 146h143q82 258 249.5 400t393.5 142q148 0 255 -76.5t155 -212.5l-209 -108q-55 168 -236 168q-250 0 -364 -313h452l-26 -146h-469l-11 -55l-6 -39h469l-24 -146h-457q-1 -160 64 -244.5t190 -84.5q180 0 297 182 l184 -115q-178 -297 -514 -297q-220 0 -341 150t-116 409h-147z" />
<glyph unicode="&#x2122;" horiz-adv-x="964" d="M217 1333l19 101h339l-18 -101h-115l-53 -309h-110l53 309h-115zM547 1024l71 410h107l72 -174l137 174h121l-72 -410h-106l41 238l-138 -166h-10l-76 166l-41 -238h-106z" />
<glyph unicode="&#x25fc;" horiz-adv-x="1024" d="M0 0v1024h1024v-1024h-1024z" />
<glyph unicode="&#xfb03;" horiz-adv-x="1675" d="M100 811l37 213h156l4 20q77 446 537 416l-37 -213q-239 21 -279 -203l-4 -20h342l6 41q36 213 167 314.5t362 101.5q117 0 231 -27l-35 -203q-104 17 -201 17q-134 0 -209.5 -48t-93.5 -155l-6 -41h561l-180 -1024h-221l143 811h-342l-141 -811h-221l141 811h-340 l-143 -811h-221l143 811h-156z" />
<glyph unicode="&#xfb04;" horiz-adv-x="1675" d="M100 811l37 213h156l4 20q77 446 537 416l-37 -213q-239 21 -279 -203l-4 -20h342l6 41q36 215 169 315.5t370 100.5q150 0 311 -37l-254 -1444h-221l225 1284q-23 2 -96 2q-242 0 -283 -221l-6 -41h191l-37 -213h-193l-141 -811h-221l141 811h-340l-143 -811h-221 l143 811h-156z" />
</font>
</defs>
</svg>
