<?xml version="1.0" standalone="no"?>
<!DOCTYPE svg PUBLIC "-//W3C//DTD SVG 1.1//EN" "http://www.w3.org/Graphics/SVG/1.1/DTD/svg11.dtd" >
<svg xmlns="http://www.w3.org/2000/svg" xmlns:xlink="http://www.w3.org/1999/xlink" version="1.1">
<metadata></metadata>
<defs>
<font id="svn-gilroylight_italic" horiz-adv-x="1323" >
<font-face units-per-em="2048" ascent="1638" descent="-410" />
<missing-glyph horiz-adv-x="546" />
<glyph unicode="&#xfb01;" horiz-adv-x="1044" d="M127 924l18 100h177l10 55q64 377 477 377q85 0 192 -22l-14 -95q-104 19 -196 19q-160 0 -244.5 -66t-110.5 -213l-10 -55h553l-180 -1024h-105l162 924h-446l-164 -924h-105l164 924h-178z" />
<glyph unicode="&#xfb02;" horiz-adv-x="1044" d="M127 924l18 100h177l10 55q64 377 477 377q107 0 242 -22l-252 -1434h-105l238 1354q-52 8 -141 8q-158 0 -243.5 -67.5t-111.5 -215.5l-10 -55h244l-17 -100h-243l-164 -924h-105l164 924h-178z" />
<glyph horiz-adv-x="0" />
<glyph horiz-adv-x="682" />
<glyph unicode=" "  horiz-adv-x="546" />
<glyph unicode="&#x09;" horiz-adv-x="546" />
<glyph unicode="&#xa0;" horiz-adv-x="546" />
<glyph unicode="!" horiz-adv-x="450" d="M57 74q6 41 35.5 65.5t71.5 24.5q38 0 60.5 -28t15.5 -66q-8 -41 -37 -65.5t-72 -24.5q-38 0 -60 28t-14 66zM160 369l94 655l72 410h123l-72 -410l-135 -655h-82z" />
<glyph unicode="&#x22;" horiz-adv-x="600" d="M217 1051l53 383h111l-82 -383h-82zM492 1051l53 383h108l-80 -383h-81z" />
<glyph unicode="#" horiz-adv-x="1234" d="M72 485l30 95h246l94 274h-247l32 94h248l131 383h103l-131 -383h315l131 383h102l-131 -383h242l-33 -94h-241l-95 -274h246l-33 -95h-245l-131 -383h-103l131 383h-315l-131 -383h-103l131 383h-243zM451 580h315l94 274h-315z" />
<glyph unicode="$" horiz-adv-x="1142" d="M47 276l98 50q27 -107 111.5 -171t216.5 -71l107 602q-85 34 -138 63.5t-108 77.5q-116 107 -80 283q30 164 164 254q136 92 297 92l33 182h96l-33 -190q235 -37 315 -252l-96 -49q-72 173 -237 199l-105 -588q30 -12 51.5 -21.5t52.5 -24t51.5 -27t48.5 -31.5t44 -36.5 t38 -42t29.5 -49t19 -56t7 -63.5t-7.5 -73q-30 -161 -156.5 -253.5t-314.5 -103.5l-33 -182h-96l33 185q-160 13 -265.5 90t-142.5 206zM357 1028.5q0 -31.5 14.5 -60t32.5 -50.5t49.5 -44t65 -39.5t79.5 -37.5l98 555q-122 -3 -217 -74q-96 -72 -117 -178q-5 -40 -5 -71.5z M569 84q139 10 230 79.5t114 182.5q16 73 -10 129t-81 94.5t-152 79.5z" />
<glyph unicode="%" horiz-adv-x="1466" d="M145 184l1166 1096l71 -41l-1167 -1096zM244 1157q21 129 125 213q106 86 241 86q133 0 207 -92q75 -86 53 -219q-21 -128 -125 -215q-104 -84 -241 -84q-129 0 -207 90q-74 89 -53 221zM344 1151q-16 -92 33 -152q53 -59 143 -59q91 0 162 59q73 64 88 152 q16 93 -35 149q-50 62 -141 62q-93 0 -164 -62q-71 -59 -86 -149zM670 289q21 129 125 213q106 86 241 86q133 0 207 -92q75 -86 53 -220q-21 -129 -127 -215q-104 -84 -239 -84q-128 0 -207 91q-74 89 -53 221zM770 283q-14 -91 35 -151t141 -60t162.5 60t87.5 151 t-33.5 151t-142.5 60t-162.5 -60t-87.5 -151z" />
<glyph unicode="&#x26;" horiz-adv-x="1351" d="M111 399q47 266 362 406q-89 142 -65 293q27 160 149 258q124 100 295 100q141 0 243.5 -72t145.5 -198l-94 -51q-33 101 -111 159t-186 58q-126 0 -219 -72.5t-113 -189.5q-27 -143 103 -308l358 -456q89 127 141 284l84 -55q-57 -175 -162 -309l170 -217l-94 -47 l-147 186q-194 -191 -459 -191q-210 0 -324 117q-112 117 -77 305zM219 389q-26 -140 57.5 -223.5t243.5 -83.5q219 0 389 164l-372 473q0 2 -2 2q-276 -112 -316 -332z" />
<glyph unicode="'" horiz-adv-x="321" d="M217 1051l53 383h111l-82 -383h-82z" />
<glyph unicode="(" horiz-adv-x="514" d="M162 727q82 477 387 911h102q-304 -446 -386.5 -921.5t61.5 -921.5h-103q-143 450 -61 932z" />
<glyph unicode=")" horiz-adv-x="514" d="M-66 -205q304 446 387 921.5t-61 921.5h102q144 -451 62 -931q-82 -479 -387 -912h-103z" />
<glyph unicode="*" horiz-adv-x="792" d="M246 1163l14 88l195 -4l-82 162l86 47l69 -170l129 170l76 -47l-135 -162l195 4l-15 -88l-194 4l80 -161l-84 -48l-70 172l-129 -172l-78 48l137 161z" />
<glyph unicode="+" horiz-adv-x="1091" d="M158 668l16 98h367l65 367h101l-66 -367h367l-19 -98h-364l-66 -367h-100l65 367h-366z" />
<glyph unicode="," horiz-adv-x="456" d="M-14 -287l151 426h129l-186 -426h-94z" />
<glyph unicode="-" horiz-adv-x="1091" d="M190 584l17 98h737l-16 -98h-738z" />
<glyph unicode="." horiz-adv-x="436" d="M54 28q-15 49 16 94q31 47 86 42q38 0 61 -28t16 -66q-8 -41 -36.5 -65.5t-71.5 -24.5q-56 -3 -71 48z" />
<glyph unicode="/" horiz-adv-x="1079" d="M-39 -205l1141 1843h86l-1139 -1843h-88z" />
<glyph unicode="0" horiz-adv-x="1294" d="M147 729q59 339 232 533q176 194 434 194q246 0 354 -209q111 -205 52 -542q-59 -340 -234 -533q-174 -195 -432 -195q-244 0 -356 207q-109 210 -50 545zM256 717q-51 -301 31.5 -468t283.5 -167t343 167t196 468q51 301 -31.5 468t-283.5 167t-343 -167t-196 -468z" />
<glyph unicode="1" horiz-adv-x="679" d="M174 1305l397 129h93l-252 -1434h-109l232 1311l-351 -103z" />
<glyph unicode="2" horiz-adv-x="1079" d="M-2 0l18 98l621 541q273 237 303 405q24 140 -50 224t-212 84q-232 0 -377 -219l-86 57q85 129 209.5 197.5t267.5 68.5q176 0 283 -119q108 -117 74 -307q-22 -116 -105 -225t-239 -244l-529 -457h742l-19 -104h-901z" />
<glyph unicode="3" horiz-adv-x="1103" d="M33 250l92 51q59 -219 330 -219q161 0 280 90q118 87 146 242q27 152 -62 241q-87 90 -248 90h-30l-37 74l446 512h-692l16 103h828l-19 -103l-426 -493q173 -21 267 -138q97 -115 67 -297q-34 -198 -192 -313q-155 -113 -359 -113q-157 0 -266 72t-141 201z" />
<glyph unicode="4" horiz-adv-x="1161" d="M20 301l19 102l725 1031h123l-723 -1031h645l80 451h110l-79 -451h184l-19 -102h-184l-53 -301h-109l54 301h-773z" />
<glyph unicode="5" horiz-adv-x="1114" d="M49 266l96 51q20 -114 107 -174.5t223 -60.5q161 0 283 90q117 86 145 242q26 151 -60 241t-251 90h-383l168 689h758l-17 -103h-659l-117 -481h268q192 0 314 -125q122 -123 88 -322t-191 -313q-152 -113 -360 -113q-160 0 -271 77t-141 212z" />
<glyph unicode="6" horiz-adv-x="1099" d="M59 459q34 187 160 307l574 668h133l-457 -531q74 19 152 19q205 0 319 -138q115 -139 78 -346q-38 -211 -193 -336q-152 -125 -370 -125q-206 0 -320 138q-116 141 -76 344zM168 449q-30 -163 53 -265t252 -102q170 0 287 102q119 101 149 265q29 165 -53.5 265.5 t-253.5 100.5q-169 0 -289 -102q-118 -103 -145 -264z" />
<glyph unicode="7" horiz-adv-x="1003" d="M156 0l784 1331h-747l16 103h868l-18 -103l-785 -1331h-118z" />
<glyph unicode="8" horiz-adv-x="1128" d="M68 393q20 123 104 214t213 136q-88 52 -129 140t-23 196q35 185 173 279q140 98 323 98q172 0 283 -108q112 -109 78 -287q-41 -226 -267 -324q108 -52 160.5 -148.5t32.5 -215.5q-35 -188 -182.5 -292t-364.5 -104q-200 0 -319 113q-117 114 -82 303zM176 383 q-26 -140 59 -220.5t252 -80.5q168 0 280.5 80.5t137.5 220.5q24 138 -62 218.5t-249 80.5q-167 0 -280 -80t-138 -219zM342 1069q-23 -127 54 -204t216 -77q142 0 243 76.5t126 204.5q23 131 -52.5 207t-215.5 76q-142 0 -244.5 -76t-126.5 -207z" />
<glyph unicode="9" horiz-adv-x="1103" d="M154 997q38 209 192 334q155 125 373 125q204 0 319 -139t78 -346q-30 -174 -149 -293l-584 -678h-131l455 530q-73 -18 -156 -18q-209 0 -322 137t-75 348zM262 985q-29 -165 54.5 -266t252.5 -101q170 0 289 101q123 105 150 266q29 163 -55 265t-253 102t-290 -103 t-148 -264z" />
<glyph unicode=":" horiz-adv-x="436" d="M54 28q-15 49 16 94q31 47 86 42q38 0 61 -28t16 -66q-8 -41 -36.5 -65.5t-71.5 -24.5q-56 -3 -71 48zM205 888q-15 49 16 94q32 46 86 42q38 0 61.5 -28t16.5 -66q-8 -41 -37 -65.5t-72 -24.5q-56 -3 -71 48z" />
<glyph unicode=";" horiz-adv-x="471" d="M-14 -287l151 426h129l-186 -426h-94zM240 888q-15 49 16 94q32 46 86 42q38 0 61.5 -28t16.5 -66q-8 -41 -37 -65.5t-72 -24.5q-56 -3 -71 48z" />
<glyph unicode="&#x3c;" horiz-adv-x="1079" d="M158 664l8 53l10 53l883 365l-23 -121l-751 -303l645 -303l-19 -109z" />
<glyph unicode="=" horiz-adv-x="1099" d="M121 463l18 98h840l-18 -98h-840zM195 872l16 99h840l-17 -99h-839z" />
<glyph unicode="&#x3e;" horiz-adv-x="1079" d="M92 299l23 121l751 303l-645 303l19 109l753 -365l-8 -53l-10 -53z" />
<glyph unicode="?" horiz-adv-x="1083" d="M227 1186q66 128 194 199t279 71q171 0 279 -102q106 -100 76 -275q-23 -150 -193 -297q-8 -7 -49.5 -41.5t-54 -45.5t-48.5 -44t-50.5 -50.5t-41 -50t-39 -57.5t-25.5 -58t-19 -66h-111q18 95 71.5 181t125.5 150q23 20 68 59t70.5 61.5t62 59t57.5 65.5t40.5 66.5 t26.5 75.5q20 127 -50 196t-214 69q-117 0 -215 -58t-148 -161zM341 28q-15 49 15 94q31 47 86 42q38 0 61.5 -28t16.5 -66q-8 -41 -36.5 -65.5t-71.5 -24.5q-56 -3 -71 48z" />
<glyph unicode="@" horiz-adv-x="1654" d="M98 526q52 306 303 516q251 211 572 211q210 0 360 -108q146 -106 205 -266t27 -336q-37 -208 -134 -313t-225 -105q-83 0 -133 48.5t-51 133.5q-108 -123 -268 -123q-136 0 -219 99q-80 99 -56 235q25 141 133 230q112 92 256 92q151 0 219 -129l21 114h98l-80 -456 q-30 -187 103 -187q99 0 173.5 95.5t106.5 275.5q49 274 -108 463q-155 186 -436 186q-294 0 -527 -196q-231 -191 -284 -488q-53 -300 118 -498t486 -198q211 0 360 57l-4 -53q-162 -55 -366 -55q-334 0 -521 217t-129 538zM578 512q-19 -102 37.5 -167.5t160.5 -65.5 q99 0 178.5 65.5t98.5 167.5t-37.5 167.5t-157.5 65.5q-99 0 -182 -65q-80 -65 -98 -168z" />
<glyph unicode="A" horiz-adv-x="1288" d="M-59 0l809 1434h114l303 -1434h-110l-74 365h-719l-205 -365h-118zM322 467h639l-170 833z" />
<glyph unicode="B" horiz-adv-x="1275" d="M88 0l252 1434h543q162 0 262 -115q81 -90 81 -211q0 -29 -5 -59q-17 -100 -80.5 -183t-157.5 -127q101 -43 151 -139q36 -70 36 -153q0 -31 -5 -64q-24 -158 -153 -272q-129 -111 -310 -111h-614zM215 102h498q124 0 225 84q97 81 119 205q5 29 5 55q0 86 -52 150 q-69 84 -185 84h-510zM334 782h463q110 0 202 80q92 83 113 195q5 27 5 52q0 81 -52 142q-68 80 -186 80h-449z" />
<glyph unicode="C" horiz-adv-x="1538" d="M133 731q56 314 297 518q245 207 549 207q202 0 354 -92t226 -254l-97 -51q-138 293 -485 293q-274 0 -483 -185q-208 -183 -254 -450q-11 -64 -11 -123q0 -188 111 -330q144 -182 418 -182q173 0 325.5 81t251.5 224l92 -57q-117 -163 -297 -258t-382 -95 q-319 0 -496 222q-133 167 -133 386q0 70 14 146z" />
<glyph unicode="D" horiz-adv-x="1490" d="M88 0l252 1434h539q285 0 444 -217q120 -164 120 -373q0 -69 -13 -144q-52 -300 -279 -501q-224 -199 -524 -199h-539zM215 102h430q248 0 440 177q191 177 238 438q11 64 11 124q0 178 -97 312q-126 178 -375 178h-432z" />
<glyph unicode="E" horiz-adv-x="1091" d="M88 0l252 1434h815l-16 -103h-709l-98 -557h657l-18 -102h-656l-100 -570h717l-19 -102h-825z" />
<glyph unicode="F" horiz-adv-x="1060" d="M88 0l252 1434h795l-19 -103h-686l-100 -573h661l-18 -103h-662l-114 -655h-109z" />
<glyph unicode="G" horiz-adv-x="1638" d="M135 741q53 305 295 510t555 205q203 0 352 -91t230 -255l-97 -51q-147 293 -489 293q-277 0 -485 -181t-254 -446q-11 -64 -11 -123q0 -190 113 -334q149 -186 436 -186q249 0 426 137q179 136 236 346h-608l18 103h719l-10 -54q-49 -272 -267 -454q-216 -183 -518 -183 q-335 0 -516 224q-138 172 -138 397q0 69 13 143z" />
<glyph unicode="H" horiz-adv-x="1406" d="M88 0l252 1434h109l-113 -646h833l113 646h109l-252 -1434h-109l121 686h-834l-120 -686h-109z" />
<glyph unicode="I" horiz-adv-x="464" d="M88 0l252 1434h109l-252 -1434h-109z" />
<glyph unicode="J" horiz-adv-x="1132" d="M39 223l96 53q56 -194 309 -194q158 0 267 82t135 229l182 1041h109l-183 -1043q-37 -205 -180 -309q-144 -105 -336 -105q-155 0 -259 63t-140 183z" />
<glyph unicode="K" horiz-adv-x="1169" d="M88 0l252 1434h109l-117 -668l815 668h147l-850 -707l615 -727h-131l-606 715l-125 -715h-109z" />
<glyph unicode="L" horiz-adv-x="1009" d="M88 0l252 1434h109l-234 -1332h676l-19 -102h-784z" />
<glyph unicode="M" horiz-adv-x="1652" d="M88 0l252 1434h129l365 -854l663 854h139l-252 -1434h-108l221 1264l-678 -871h-18l-379 889l-225 -1282h-109z" />
<glyph unicode="N" horiz-adv-x="1406" d="M88 0l252 1434h86l639 -1233l217 1233h109l-252 -1434h-88l-637 1233l-217 -1233h-109z" />
<glyph unicode="O" horiz-adv-x="1677" d="M133 733q53 309 301 514q250 209 563 209q307 0 488 -227q141 -175 141 -401q0 -65 -12 -134q-56 -308 -303 -512q-245 -205 -563 -205q-307 0 -488 224q-139 172 -139 397q0 65 12 135zM244 717q-11 -64 -12 -124q0 -188 114 -327q150 -184 420 -184q272 0 479 180 q211 181 258 449q11 62 11 120q0 188 -115 332q-151 189 -420 189t-481 -185q-208 -184 -254 -450z" />
<glyph unicode="P" horiz-adv-x="1200" d="M88 0l252 1434h477q199 0 305 -127q83 -96 82 -229q0 -43 -8 -89q-35 -194 -182 -317q-146 -125 -371 -125h-350l-96 -547h-109zM311 649h344q172 0 291 101q120 102 144 254q6 35 6 68q0 100 -59 168q-78 90 -228 91h-379z" />
<glyph unicode="Q" horiz-adv-x="1687" d="M133 733q53 309 301 514q250 209 563 209q307 0 488 -227q141 -175 141 -401q0 -65 -12 -134q-58 -314 -316 -522l129 -154l-77 -67l-136 162q-216 -136 -466 -136q-307 0 -488 224q-139 172 -139 397q0 65 12 135zM244 717q-11 -64 -11 -124q0 -188 113 -327 q150 -184 420 -184q202 0 383 108l-266 318l78 67l272 -323q217 178 270 459q11 62 11 120q0 188 -115 332q-151 189 -420 189t-481 -185q-208 -184 -254 -450z" />
<glyph unicode="R" horiz-adv-x="1255" d="M88 0l252 1434h565q168 0 275 -134q81 -99 81 -224q0 -39 -8 -81q-25 -145 -129.5 -252t-253.5 -143l248 -600h-112l-242 588h-6h-459l-102 -588h-109zM317 690h459q131 0 240 92q109 95 133 228q6 31 6 61q0 94 -59 166q-76 94 -207 94h-459z" />
<glyph unicode="S" horiz-adv-x="1173" d="M47 315l96 50q25 -133 127 -208t267 -75t272.5 70t132.5 192q6 31 6 58q0 38 -12 69q-20 53 -78 90q-59 41 -106 62q-32 14 -136 55q-58 21 -84 31t-64 28t-77 41q-88 55 -126 134q-26 55 -26 128q0 33 5 70q35 169 168 256q140 90 307 90q168 0 278.5 -80.5 t153.5 -218.5l-96 -49q-77 244 -342 244q-133 0 -234 -68.5t-125 -183.5q-6 -31 -6 -57q0 -39 12 -69q20 -52 76 -93q57 -39 107 -62q6 -3 135 -53q74 -27 117 -45q45 -17 108 -57q65 -41 94 -80q35 -44 51 -111q9 -37 9 -76q0 -32 -6 -65q-35 -169 -174.5 -262t-344.5 -93 q-195 0 -322.5 89t-162.5 249z" />
<glyph unicode="T" horiz-adv-x="1105" d="M193 1331l16 103h1012l-19 -103h-450l-234 -1331h-110l233 1331h-448z" />
<glyph unicode="U" horiz-adv-x="1366" d="M152 479l167 955h109l-168 -955q-8 -46 -8 -88q0 -121 68 -201q90 -108 284 -108q201 0 330 111q131 116 160 286l168 955h108l-168 -955q-41 -232 -203 -366q-165 -136 -393 -136q-238 0 -366 140q-98 109 -98 262q0 48 10 100z" />
<glyph unicode="V" horiz-adv-x="1239" d="M188 1434h111l248 -1297l704 1297h121l-786 -1434h-115z" />
<glyph unicode="W" horiz-adv-x="2033" d="M229 1434h109l145 -1293l627 1293h129l174 -1293l600 1293h115l-668 -1434h-131l-174 1292l-631 -1292h-131z" />
<glyph unicode="X" horiz-adv-x="1173" d="M-43 0l610 743l-331 691h112l289 -605l496 605h129l-576 -703l350 -731h-112l-310 645l-528 -645h-129z" />
<glyph unicode="Y" horiz-adv-x="1167" d="M188 1434h113l320 -664l553 664h129l-637 -764l-119 -670h-109l119 674z" />
<glyph unicode="Z" horiz-adv-x="1071" d="M-2 0l18 102l988 1229h-750l16 103h875l-17 -103l-987 -1229h791l-19 -102h-915z" />
<glyph unicode="[" horiz-adv-x="567" d="M2 -205l326 1843h397l-18 -100h-293l-289 -1642h293l-19 -101h-397z" />
<glyph unicode="\" horiz-adv-x="1079" d="M287 1638h82l493 -1843h-80z" />
<glyph unicode="]" horiz-adv-x="567" d="M-86 -205l18 101h293l289 1642h-291l17 100h395l-326 -1843h-395z" />
<glyph unicode="^" horiz-adv-x="1028" d="M156 819l467 615h102l254 -615h-113l-202 498l-379 -498h-129z" />
<glyph unicode="_" horiz-adv-x="1038" d="M-57 -272l18 98h873l-17 -98h-874z" />
<glyph unicode="`" horiz-adv-x="370" d="M203 1427h123l118 -260h-98z" />
<glyph unicode="a" d="M92 535q44 241 211 374q169 138 381 138q147 0 261 -75.5t163 -205.5l45 258h102l-180 -1024h-102l37 209q-173 -232 -473 -232q-219 0 -351 166q-103 130 -103 292q0 49 9 100zM197 526q-9 -45 -8 -87q0 -130 81 -230q109 -133 291 -133q186 0 326 119q142 121 172 303 q8 46 8 89q0 139 -86 234q-112 127 -291 127q-176 0 -317 -114t-176 -308z" />
<glyph unicode="b" horiz-adv-x="1320" d="M68 0l251 1434h103l-111 -627q83 114 207 177t270 63q218 0 349 -162q103 -125 104 -286q0 -48 -10 -99q-41 -228 -213 -375q-174 -148 -404 -148q-140 0 -247.5 75.5t-151.5 203.5l-45 -256h-102zM262 518q-8 -43 -8 -84q0 -129 82 -229q108 -129 289 -129 q185 0 325 125q141 123 176 311q9 45 9 86q0 128 -82 223q-109 127 -289 127q-182 0 -326 -123q-141 -121 -176 -307z" />
<glyph unicode="c" horiz-adv-x="1150" d="M92 528q41 230 215 373q181 146 408 146q147 0 258.5 -71t152.5 -190l-88 -47q-36 99 -121.5 154t-211.5 55q-188 0 -332 -123q-141 -121 -176 -307q-9 -47 -9 -90q0 -129 76 -225q103 -127 287 -127q122 0 230 58t171 157l82 -55q-78 -122 -210.5 -190.5t-291.5 -68.5 q-226 0 -354 162q-96 124 -96 284q0 51 10 105z" />
<glyph unicode="d" d="M92 535q44 241 211 374q169 138 381 138q147 0 261 -74.5t163 -204.5l117 666h102l-252 -1434h-102l37 209q-173 -232 -473 -232q-219 0 -351 166q-103 130 -103 292q0 49 9 100zM197 526q-9 -45 -8 -87q0 -130 81 -230q109 -133 291 -133q187 0 324 119q140 119 174 303 q8 46 8 89q0 139 -86 234q-112 127 -291 127q-176 0 -317 -114t-176 -308z" />
<glyph unicode="e" horiz-adv-x="1204" d="M92 526q41 228 211 373q171 148 397 148q229 0 347 -160q87 -115 87 -264q0 -55 -12 -115q-6 -34 -12 -49h-924q-1 -19 -1 -37q0 -148 88 -241q99 -105 276 -105q254 0 389 188l80 -53q-73 -109 -203.5 -171.5t-279.5 -62.5q-233 0 -359 156q-94 116 -94 280q0 54 10 113 zM203 559h821q3 30 3 58q0 141 -76 227q-91 104 -259 104q-179 0 -309 -106q-134 -110 -180 -283z" />
<glyph unicode="f" horiz-adv-x="643" d="M127 924l18 100h177l10 55q35 198 157 295q107 84 271 84q24 0 49 -2l-18 -98q-22 2 -43 2q-264 0 -312 -281l-10 -55h305l-16 -100h-305l-164 -924h-105l164 924h-178z" />
<glyph unicode="g" horiz-adv-x="1331" d="M57 -186l93 47q34 -90 124.5 -142.5t233.5 -52.5q198 0 322.5 100t156.5 283l29 160q-82 -111 -201 -171.5t-258 -60.5q-233 0 -364 162q-101 128 -101 297q0 48 8 99q34 229 207 370q174 142 381 142q147 0 262 -74.5t164 -204.5l45 256h105l-172 -975 q-41 -227 -198 -354t-390 -127q-164 0 -281.5 66t-165.5 180zM203 526q-6 -40 -6 -77q0 -141 82 -244q108 -129 294 -129q173 0 308 108q136 107 180 283l12 65q2 25 2 49q0 152 -98 250q-114 117 -283 117q-175 0 -319 -117q-145 -118 -172 -305z" />
<glyph unicode="h" horiz-adv-x="1155" d="M68 0l251 1434h103l-103 -588q145 201 394 201q183 0 274 -112q68 -84 68 -208q0 -42 -8 -90l-113 -637h-105l113 637q7 40 7 76q-1 91 -47 151q-64 84 -208 84q-162 0 -277.5 -106.5t-150.5 -300.5v2l-96 -543h-102z" />
<glyph unicode="i" horiz-adv-x="417" d="M68 0l180 1024h102l-180 -1024h-102zM264 1264q5 32 30.5 54.5t61.5 22.5q31 0 51.5 -23.5t14.5 -53.5q-6 -34 -32.5 -57t-61.5 -23q-34 0 -52 23t-12 57z" />
<glyph unicode="j" horiz-adv-x="456" d="M-207 -432l17 98q21 -2 41 -2q196 0 235 219l201 1141h102l-201 -1141q-54 -318 -336 -318q-28 0 -59 3zM307 1264q5 32 30.5 54.5t61.5 22.5q31 0 51.5 -23.5t14.5 -53.5q-6 -34 -32.5 -57t-61.5 -23q-34 0 -52 23t-12 57z" />
<glyph unicode="k" horiz-adv-x="989" d="M68 0l251 1434h103l-154 -869l600 459h146l-641 -494l479 -530h-127l-465 514l-90 -514h-102z" />
<glyph unicode="l" horiz-adv-x="419" d="M70 0l108 627l154 868h102l-151 -868l-111 -627h-102z" />
<glyph unicode="m" horiz-adv-x="1755" d="M68 0l180 1024h102l-28 -158q138 181 356 181q111 0 187 -54t100 -155q70 102 171 155.5t210 53.5q157 0 245 -107q67 -80 67 -198q0 -44 -9 -93l-115 -649h-102l112 649q7 42 7 78q0 86 -41 142q-59 79 -185 79q-133 0 -230 -86t-134 -252l-109 -610h-102l112 649 q8 45 8 83q0 83 -38 137q-56 79 -179 79q-140 0 -245 -97t-136 -276l-102 -575h-102z" />
<glyph unicode="n" horiz-adv-x="1155" d="M68 0l180 1024h102l-31 -178q145 201 394 201q183 0 274 -112q68 -84 68 -208q0 -42 -8 -90l-113 -637h-105l113 637q7 40 7 76q-1 91 -47 151q-64 84 -208 84q-162 0 -277.5 -106.5t-150.5 -300.5v2l-96 -543h-102z" />
<glyph unicode="o" horiz-adv-x="1253" d="M90 522q44 241 227 381q185 144 406 144q215 0 348 -154q102 -115 102 -282q0 -51 -10 -107q-44 -246 -223 -385q-183 -142 -399 -142q-215 0 -355 152q-105 115 -105 286q0 51 9 107zM195 512q-9 -49 -8 -94q0 -134 79 -223q107 -119 285 -119q180 0 326 119 q149 119 184 321q8 46 8 88q0 133 -82 225q-107 119 -282 119q-181 -3 -328 -121q-148 -121 -182 -315z" />
<glyph unicode="p" d="M-4 -410l252 1434h102l-37 -209q176 232 473 232q219 0 351 -166q103 -130 103 -292q0 -49 -9 -100q-43 -238 -213 -376q-171 -136 -379 -136q-147 0 -261 75.5t-163 205.5l-117 -668h-102zM264 526q-8 -48 -8 -92q0 -138 84 -233q113 -125 293 -125q178 0 317 112 q141 114 176 310q9 45 9 87q0 130 -82 230q-109 133 -291 133q-186 0 -326 -119q-138 -120 -172 -303z" />
<glyph unicode="q" d="M92 535q44 241 211 374q169 138 381 138q147 0 261 -75.5t163 -205.5l45 258h102l-251 -1434h-103l109 619q-173 -232 -473 -232q-219 0 -351 166q-103 130 -103 292q0 49 9 100zM197 526q-9 -45 -9 -87q0 -130 82 -230q109 -133 291 -133q186 0 326 119q142 121 172 301 q8 47 8 90q0 140 -86 235q-112 127 -291 127q-176 0 -317 -114t-176 -308z" />
<glyph unicode="r" horiz-adv-x="651" d="M68 0l180 1024h102l-31 -174q130 188 356 188h21l-18 -98q-147 0 -260 -94q-113 -91 -148 -277l-100 -569h-102z" />
<glyph unicode="s" horiz-adv-x="966" d="M53 211l92 47q24 -86 97 -134t184 -48q114 0 192 48.5t95 133.5q3 14 3 27q0 53 -42 93q-52 50 -148 79q-154 44 -215 76q-134 72 -134 197q0 24 5 50q21 118 123 191q104 76 250 76q121 0 209.5 -54t126.5 -151l-90 -47q-24 73 -92.5 113t-157.5 40q-99 0 -173 -47.5 t-91 -134.5q-3 -14 -3 -27q0 -53 42 -91q52 -48 145 -77q154 -43 218 -78q131 -72 131 -201q0 -24 -5 -50q-20 -123 -127.5 -194t-269.5 -71q-292 0 -365 234z" />
<glyph unicode="t" horiz-adv-x="772" d="M121 924l18 100h226l45 256l108 31l-51 -287h307l-18 -100h-305l-119 -666q-5 -32 -5 -58q0 -76 46 -96q41 -17 127 -17q47 0 108 5l-14 -92q-72 -11 -130 -11q-110 0 -172 41q-70 48 -70 153q0 34 7 75l117 666h-225z" />
<glyph unicode="u" horiz-adv-x="1155" d="M109 387l112 637h105l-113 -637q-7 -40 -7 -76q0 -91 46 -151q64 -84 209 -84q162 0 277.5 106.5t150.5 300.5v-2l96 543h102l-180 -1024h-102l31 178q-145 -201 -394 -201q-184 0 -274 112q-67 83 -67 208q0 43 8 90z" />
<glyph unicode="v" horiz-adv-x="976" d="M117 1024h106l189 -913l512 913h116l-579 -1024h-125z" />
<glyph unicode="w" horiz-adv-x="1576" d="M158 1024h102l117 -893l444 893h107l-2 -4l131 -889l430 893h112l-503 -1024h-113l-131 872l-438 -872h-113z" />
<glyph unicode="x" horiz-adv-x="1038" d="M-43 0l504 535l-299 489h117l251 -416l392 416h133l-471 -502l315 -522h-115l-272 446l-420 -446h-135z" />
<glyph unicode="y" horiz-adv-x="1044" d="M8 -410l17 97q13 -1 25 -1q177 0 317 240l34 58l-284 1040h104l248 -922l522 922h117l-639 -1118q-91 -161 -211 -244q-107 -73 -222 -73q-14 0 -28 1z" />
<glyph unicode="z" horiz-adv-x="948" d="M6 0l12 68l758 856h-588l19 100h737l-12 -68l-760 -856h629l-17 -100h-778z" />
<glyph unicode="{" horiz-adv-x="714" d="M137 670l19 98q120 0 179 44.5t79 160.5l67 383q59 337 396 303l-19 -100q-123 14 -187.5 -33.5t-84.5 -169.5l-68 -383q-20 -117 -70.5 -179t-138.5 -83q156 -41 119 -246l-68 -383q-23 -121 26 -169t175 -36l-16 -98q-168 -14 -242 64t-45 239l66 383q23 116 -21 160.5 t-166 44.5z" />
<glyph unicode="|" horiz-adv-x="458" d="M16 -410l332 1885h103l-332 -1885h-103z" />
<glyph unicode="}" horiz-adv-x="716" d="M-88 -221l18 100q123 -14 188 33.5t85 169.5l67 383q20 117 70.5 179t138.5 83q-156 41 -119 246l68 383q23 121 -26 169t-175 36l17 98q168 14 241.5 -64t44.5 -239l-65 -383q-23 -116 20.5 -160.5t165.5 -44.5l-18 -98q-120 0 -179 -44.5t-79 -160.5l-68 -383 q-59 -337 -395 -303z" />
<glyph unicode="~" horiz-adv-x="1202" d="M152 637q30 70 78 121t112.5 78.5t149.5 9.5t176 -86q248 -181 368 82l86 -45q-24 -56 -58 -100t-82.5 -74.5t-103.5 -38.5t-125 14t-145 76q-254 184 -368 -82z" />
<glyph unicode="&#xa1;" horiz-adv-x="450" d="M2 -410l72 410l135 655h82l-94 -655l-72 -410h-123zM211 954q8 41 36.5 65.5t71.5 24.5q38 0 60 -28t14 -66q-6 -41 -35 -65.5t-71 -24.5q-38 0 -60.5 28t-15.5 66z" />
<glyph unicode="&#xa2;" horiz-adv-x="1153" d="M129 733q41 230 215 373q180 145 408 145q43 0 108 -10l96 193h88l-108 -215q171 -67 227 -228l-88 -47q-49 135 -184 184l-416 -833q46 -14 113 -14q122 0 230 58t171 157l82 -56q-78 -122 -210.5 -190t-291.5 -68q-77 0 -141 21l-100 -203h-88l114 231 q-130 67 -192 203t-33 299zM233 723q-23 -130 22.5 -237.5t145.5 -161.5l412 823q-35 6 -72 6q-187 0 -331 -123q-142 -122 -177 -307z" />
<glyph unicode="&#xa3;" horiz-adv-x="1208" d="M-2 0l18 104h205l88 496h-164l17 96h164l61 348q35 196 156 304t301 108q130 0 225.5 -70.5t136.5 -195.5l-90 -49q-76 211 -282 211q-132 0 -223 -81t-115 -227l-62 -348h494l-19 -96h-491l-88 -496h772l-19 -104h-1085z" />
<glyph unicode="&#xa4;" horiz-adv-x="1132" d="M51 293l172 145q-82 125 -55 285q27 159 149 278l-116 142l61 51l117 -141q140 96 299 96q155 0 258 -100l170 145l49 -53l-172 -148q82 -122 55 -282q-27 -158 -149 -277l117 -143l-64 -51l-117 141q-137 -96 -299 -96q-152 0 -256 98l-170 -143zM272 717 q-27 -137 54 -238q81 -96 219 -96q136 0 252 96q113 98 137 238q24 141 -55 235q-77 99 -217 99t-254 -99q-115 -95 -136 -235z" />
<glyph unicode="&#xa5;" horiz-adv-x="1167" d="M125 365l16 90h377l27 157h-375l14 93h357l-353 729h113l320 -664l553 664h129l-609 -729h359l-17 -93h-381l-28 -157h381l-15 -90h-381l-65 -365h-109l64 365h-377z" />
<glyph unicode="&#xa6;" horiz-adv-x="458" d="M16 -410l134 758h102l-133 -758h-103zM215 717l133 758h103l-134 -758h-102z" />
<glyph unicode="&#xa7;" horiz-adv-x="1046" d="M49 37l94 51q52 -217 306 -217q115 0 192 50t94 142q8 48 -6.5 88t-55.5 75.5t-94.5 65t-136.5 66.5q-157 71 -225.5 151.5t-46.5 201.5q27 149 192 243q-78 90 -57 217q23 128 128.5 206.5t258.5 78.5q124 0 214 -62t128 -177l-90 -48q-68 189 -264 189 q-104 0 -179.5 -53t-92.5 -142q-11 -75 41 -143q19 -22 69 -55q38 -25 78 -45l94 -48q158 -74 224 -154t44 -202q-27 -152 -182 -240q83 -95 62 -223q-23 -129 -131 -205.5t-271 -76.5q-148 0 -246.5 68.5t-140.5 197.5zM274 702q-13 -87 41 -144.5t183 -111.5 q139 -59 209 -108q128 70 149 188q16 86 -36.5 141t-186.5 117q-133 58 -203 109q-135 -70 -156 -191z" />
<glyph unicode="&#xa8;" horiz-adv-x="600" d="M174 1255q6 51 56 68q46 16 77 -9q24 -22 17 -59q-6 -31 -31.5 -52t-56.5 -21t-49.5 21.5t-12.5 51.5zM543 1255q6 50 55 68q44 16 76 -8q26 -21 18 -60q-6 -31 -31.5 -52t-56.5 -21t-49 21t-12 52z" />
<glyph unicode="&#xa9;" horiz-adv-x="1675" d="M133 727q52 306 305 518q254 211 566 211q301 0 483 -221q180 -218 127 -528q-56 -308 -307 -519t-564 -211q-302 0 -485 222q-181 220 -125 528zM188 717q-53 -285 113 -490q167 -200 451 -200q285 0 520 200q233 199 287 490q53 286 -115 487q-164 203 -449 203 q-284 0 -522 -203q-235 -198 -285 -487zM483 727q26 163 156 274q130 109 301 109q103 0 186 -52t125 -140l-88 -44q-75 140 -239 140q-130 0 -224 -88q-93 -84 -114 -209q-21 -121 43 -209q67 -88 192 -88q82 0 157 39t122 108l82 -53q-63 -88 -162 -139t-209 -51 q-167 0 -260 118q-95 121 -68 285z" />
<glyph unicode="&#xab;" horiz-adv-x="968" d="M184 633l283 354h135l-289 -362l154 -346h-125zM473 633l281 354h135l-287 -362l154 -346h-127z" />
<glyph unicode="&#xac;" horiz-adv-x="1064" d="M160 682l16 100h807l-61 -354h-105l45 254h-702z" />
<glyph unicode="&#xad;" horiz-adv-x="1091" d="M190 584l17 98h737l-16 -98h-738z" />
<glyph unicode="&#xae;" horiz-adv-x="1675" d="M133 727q52 306 305 518q254 211 566 211q301 0 483 -221q180 -218 127 -528q-56 -308 -307 -519t-564 -211q-302 0 -485 222q-181 220 -125 528zM188 717q-53 -285 113 -490q167 -200 451 -200q285 0 520 200q233 199 287 490q53 286 -115 487q-164 203 -449 203 q-284 0 -522 -203q-235 -198 -285 -487zM588 338l133 758h231q126 0 189 -71t45 -173q-27 -174 -197 -215l123 -299h-102l-113 285h-27h-135l-49 -285h-98zM754 717h139q173 0 194 141q12 67 -25 105t-120 38h-139z" />
<glyph unicode="&#xaf;" horiz-adv-x="600" d="M162 1202l16 90h518l-14 -90h-520z" />
<glyph unicode="&#xb0;" horiz-adv-x="790" d="M240 1366q21 128 122 209q104 84 236 84q130 0 201 -92q72 -87 51 -215q-20 -129 -118.5 -211t-239.5 -82q-126 0 -201 90q-72 90 -51 217zM340 1358q-14 -89 32.5 -147t137.5 -58q88 0 157 59.5t83 145.5q17 88 -31.5 147.5t-136.5 59.5q-89 0 -156.5 -59t-85.5 -148z " />
<glyph unicode="&#xb1;" horiz-adv-x="1093" d="M74 190l16 101h834l-17 -101h-833zM180 797l19 100h364l62 346h102l-61 -346h364l-16 -100h-367l-61 -346h-101l62 346h-367z" />
<glyph unicode="&#xb4;" horiz-adv-x="366" d="M156 1167l204 260h127l-229 -260h-102z" />
<glyph unicode="&#xb5;" horiz-adv-x="1243" d="M-4 -410l252 1434h102l-112 -637h2q-25 -145 39 -228t208 -83q153 0 267.5 97t154.5 276l101 575h104l-147 -840q-7 -38 12 -61t57 -23h66l-17 -100h-77q-73 0 -114 46t-34 120q-148 -189 -385 -189q-204 0 -282 152l-95 -539h-102z" />
<glyph unicode="&#xb6;" horiz-adv-x="1167" d="M182 1047q27 161 164 274q134 113 301 113h594l-18 -97h-121l-307 -1747h-103l307 1747h-268l-307 -1747h-100l184 1051q-167 3 -260 121q-93 119 -66 285z" />
<glyph unicode="&#xb7;" horiz-adv-x="438" d="M167 662q-15 48 15 94q31 48 86 43q38 0 61.5 -28t16.5 -66q-8 -42 -37 -66.5t-71 -24.5q-56 -3 -71 48z" />
<glyph unicode="&#xb8;" horiz-adv-x="481" d="M-125 -432l16 84q145 -13 227 8t93 72q7 44 -38 67t-134 21l33 180h92l-21 -115q80 -11 125 -55t35 -106q-35 -190 -428 -156z" />
<glyph unicode="&#xbb;" horiz-adv-x="970" d="M123 279l287 362l-154 346h127l156 -354l-281 -354h-135zM410 279l288 362l-153 346h125l157 -354l-282 -354h-135z" />
<glyph unicode="&#xbc;" horiz-adv-x="1697" d="M174 1341l266 93h80l-145 -820h-99l125 703l-217 -66zM182 0l1075 1434h105l-1075 -1434h-105zM942 164l14 92l408 563h113l-406 -563h324l37 213h98l-37 -213h111l-17 -92h-110l-29 -164h-98l28 164h-436z" />
<glyph unicode="&#xbd;" horiz-adv-x="1669" d="M174 1341l266 93h80l-145 -820h-99l125 703l-217 -66zM182 0l1075 1434h105l-1075 -1434h-105zM946 0l15 80l413 340q114 88 129 178q11 67 -28 109.5t-113 42.5q-133 0 -211 -140l-80 49q44 85 125.5 135t177.5 50q116 0 180.5 -72t47.5 -178q-18 -122 -170 -244 l-314 -256h408l-15 -94h-565z" />
<glyph unicode="&#xbe;" horiz-adv-x="1910" d="M100 756l86 43q38 -115 183 -115q92 0 150.5 45.5t70.5 120.5q14 75 -29.5 121.5t-132.5 46.5h-6l-37 72l236 249h-394l17 95h514l-17 -95l-233 -245q98 -19 147.5 -88.5t32.5 -163.5q-20 -116 -110 -184t-224 -68q-196 0 -254 166zM395 0l1075 1434h105l-1075 -1434 h-105zM1155 164l14 92l408 563h113l-406 -563h324l37 213h98l-37 -213h111l-17 -92h-110l-29 -164h-98l28 164h-436z" />
<glyph unicode="&#xbf;" horiz-adv-x="1083" d="M29 -55q24 155 190 295q13 12 57 49t62.5 53.5t55 51.5t55.5 59.5t43 59t37.5 70t19.5 72.5h110q-18 -95 -71.5 -181.5t-126.5 -151.5q-19 -17 -66.5 -57.5t-71 -61t-61.5 -59t-58.5 -66.5t-40 -66t-26.5 -75q-20 -127 50 -196t214 -69q117 0 215 58t148 161l92 -53 q-66 -128 -194 -199t-279 -71q-171 0 -279 102q-105 100 -75 275zM563 954q8 41 37 65.5t72 24.5q56 3 71 -48q15 -49 -16 -94q-31 -47 -86 -42q-38 0 -61.5 28t-16.5 66z" />
<glyph unicode="&#xc0;" horiz-adv-x="1288" d="M-59 0l809 1434h114l303 -1434h-110l-74 365h-719l-205 -365h-118zM322 467h639l-170 833zM664 1837h122l119 -260h-98z" />
<glyph unicode="&#xc1;" horiz-adv-x="1288" d="M-59 0l809 1434h114l303 -1434h-110l-74 365h-719l-205 -365h-118zM322 467h639l-170 833zM748 1577l204 260h127l-229 -260h-102z" />
<glyph unicode="&#xc2;" horiz-adv-x="1288" d="M-59 0l809 1434h114l303 -1434h-110l-74 365h-719l-205 -365h-118zM322 467h639l-170 833zM549 1577l266 260h121l178 -260h-113l-131 195l-198 -195h-123z" />
<glyph unicode="&#xc3;" horiz-adv-x="1288" d="M-59 0l809 1434h114l303 -1434h-110l-74 365h-719l-205 -365h-118zM322 467h639l-170 833zM559 1604q19 112 69.5 169t114 50.5t125.5 -68.5q155 -155 195 57h90q-26 -166 -125 -208q-93 -40 -184 57q-155 155 -195 -57h-90z" />
<glyph unicode="&#xc4;" horiz-adv-x="1288" d="M-59 0l809 1434h114l303 -1434h-110l-74 365h-719l-205 -365h-118zM322 467h639l-170 833zM588 1665q6 50 55 68q44 16 76 -8q26 -21 18 -60q-6 -31 -31.5 -52.5t-56.5 -21.5t-49 21.5t-12 52.5zM956 1665q6 51 56 68q46 16 77 -9q24 -22 17 -59q-6 -31 -31.5 -52.5 t-56.5 -21.5t-49.5 21.5t-12.5 52.5z" />
<glyph unicode="&#xc5;" horiz-adv-x="1288" d="M-59 0l782 1384q-59 20 -86 72t-16 119q13 86 80.5 140t158.5 54q93 0 142.5 -57.5t37.5 -144.5q-10 -66 -55 -115.5t-111 -69.5l293 -1382h-110l-74 365h-719l-205 -365h-118zM322 467h639l-170 833zM709 1571q-11 -51 17 -84t83 -33t94.5 32.5t50.5 84.5q8 54 -20 85.5 t-84 31.5q-55 0 -94.5 -32t-46.5 -85z" />
<glyph unicode="&#xc6;" horiz-adv-x="1787" d="M-84 0l1131 1434h802l-16 -103h-659l-99 -557h623l-19 -102h-620l-101 -570h668l-18 -102h-779l66 375h-553l-295 -375h-131zM422 477h491l142 805z" />
<glyph unicode="&#xc7;" horiz-adv-x="1538" d="M133 731q56 314 297 518q245 207 549 207q202 0 354 -92t226 -254l-97 -51q-138 293 -485 293q-274 0 -483 -185q-208 -183 -254 -450q-46 -266 100 -453q144 -182 418 -182q173 0 325.5 81t251.5 224l92 -57q-110 -154 -277 -247t-357 -103l-17 -95q80 -11 125 -55 t35 -106q-35 -190 -428 -156l16 84q145 -13 227 8t93 72q7 44 -38 67t-134 21l28 160q-301 15 -460 233t-107 518z" />
<glyph unicode="&#xc8;" horiz-adv-x="1091" d="M88 0l252 1434h815l-16 -103h-709l-98 -557h657l-18 -102h-656l-100 -570h717l-19 -102h-825zM600 1837h123l119 -260h-99z" />
<glyph unicode="&#xc9;" horiz-adv-x="1091" d="M88 0l252 1434h815l-16 -103h-709l-98 -557h657l-18 -102h-656l-100 -570h717l-19 -102h-825zM684 1577l205 260h127l-230 -260h-102z" />
<glyph unicode="&#xca;" horiz-adv-x="1091" d="M88 0l252 1434h815l-16 -103h-709l-98 -557h657l-18 -102h-656l-100 -570h717l-19 -102h-825zM485 1577l267 260h120l179 -260h-113l-131 195l-199 -195h-123z" />
<glyph unicode="&#xcb;" horiz-adv-x="1091" d="M88 0l252 1434h815l-16 -103h-709l-98 -557h657l-18 -102h-656l-100 -570h717l-19 -102h-825zM524 1665q6 51 56 68q46 16 77 -9q24 -22 17 -59q-6 -31 -31.5 -52.5t-56.5 -21.5t-49.5 21.5t-12.5 52.5zM893 1665q6 50 55 68q44 16 76 -8q26 -21 18 -60 q-6 -31 -31.5 -52.5t-56.5 -21.5t-49 21.5t-12 52.5z" />
<glyph unicode="&#xcc;" horiz-adv-x="464" d="M88 0h109l252 1434h-109zM250 1837h123l119 -260h-99z" />
<glyph unicode="&#xcd;" horiz-adv-x="464" d="M88 0h109l252 1434h-109zM334 1577l205 260h127l-230 -260h-102z" />
<glyph unicode="&#xce;" horiz-adv-x="464" d="M88 0l252 1434h109l-252 -1434h-109zM135 1577l266 260h121l178 -260h-112l-131 195l-199 -195h-123z" />
<glyph unicode="&#xcf;" horiz-adv-x="464" d="M88 0l252 1434h109l-252 -1434h-109zM174 1665q6 51 56 68q46 16 77 -9q24 -22 17 -59q-6 -31 -31.5 -52.5t-56.5 -21.5t-49.5 21.5t-12.5 52.5zM543 1665q6 50 55 68q44 16 76 -8q26 -21 18 -60q-6 -31 -31.5 -52.5t-56.5 -21.5t-49 21.5t-12 52.5z" />
<glyph unicode="&#xd0;" horiz-adv-x="1531" d="M109 668l16 98h139l117 668h539q285 0 444 -217t106 -517q-52 -301 -278 -501q-224 -199 -524 -199h-539l117 668h-137zM256 102h430q248 0 440 177q191 177 238 438q43 257 -86 436q-126 178 -375 178h-432l-98 -565h489l-16 -98h-492z" />
<glyph unicode="&#xd1;" horiz-adv-x="1406" d="M88 0l252 1434h86l639 -1233l217 1233h109l-252 -1434h-88l-637 1233l-217 -1233h-109zM616 1604q19 112 70 169t114.5 50.5t125.5 -68.5q78 -78 126 -64t68 121h90q-26 -166 -125 -208q-93 -40 -184 57q-78 78 -126 64t-68 -121h-91z" />
<glyph unicode="&#xd2;" horiz-adv-x="1677" d="M133 733q-52 -310 127 -532q181 -224 488 -224q318 0 563 205q247 204 303 512q52 310 -129 535q-181 227 -488 227q-313 0 -563 -209q-248 -205 -301 -514zM244 717q46 266 254 450q212 185 481 185t420 -189q150 -188 104 -452q-47 -268 -258 -449q-207 -180 -479 -180 q-270 0 -420 184q-149 183 -102 451zM889 1837h123l118 -260h-98z" />
<glyph unicode="&#xd3;" horiz-adv-x="1677" d="M133 733q-52 -310 127 -532q181 -224 488 -224q318 0 563 205q247 204 303 512q52 310 -129 535q-181 227 -488 227q-313 0 -563 -209q-248 -205 -301 -514zM244 717q46 266 254 450q212 185 481 185t420 -189q150 -188 104 -452q-47 -268 -258 -449q-207 -180 -479 -180 q-270 0 -420 184q-149 183 -102 451zM1006 1577l204 260h127l-229 -260h-102z" />
<glyph unicode="&#xd4;" horiz-adv-x="1677" d="M133 733q53 309 301 514q250 209 563 209q307 0 488 -227q181 -225 129 -535q-56 -308 -303 -512q-245 -205 -563 -205q-307 0 -488 224q-179 222 -127 532zM244 717q-47 -268 102 -451q150 -184 420 -184q272 0 479 180q211 181 258 449q46 264 -104 452 q-151 189 -420 189t-481 -185q-208 -184 -254 -450zM791 1577l266 260h121l178 -260h-113l-131 195l-199 -195h-122z" />
<glyph unicode="&#xd5;" horiz-adv-x="1677" d="M133 733q53 309 301 514q250 209 563 209q307 0 488 -227q181 -225 129 -535q-56 -308 -303 -512q-245 -205 -563 -205q-307 0 -488 224q-179 222 -127 532zM244 717q-47 -268 102 -451q150 -184 420 -184q272 0 479 180q211 181 258 449q46 264 -104 452 q-151 189 -420 189t-481 -185q-208 -184 -254 -450zM807 1604q19 112 69.5 169t114 50.5t125.5 -68.5q155 -155 195 57h90q-26 -166 -125 -208q-93 -40 -184 57q-155 155 -195 -57h-90z" />
<glyph unicode="&#xd6;" horiz-adv-x="1677" d="M133 733q53 309 301 514q250 209 563 209q307 0 488 -227q181 -225 129 -535q-56 -308 -303 -512q-245 -205 -563 -205q-307 0 -488 224q-179 222 -127 532zM244 717q-47 -268 102 -451q150 -184 420 -184q272 0 479 180q211 181 258 449q46 264 -104 452 q-151 189 -420 189t-481 -185q-208 -184 -254 -450zM780 1665q6 51 56 68q46 16 77 -9q24 -22 17 -59q-6 -31 -31.5 -52.5t-56.5 -21.5t-49.5 21.5t-12.5 52.5zM1149 1665q6 50 55 68q44 16 76 -8q26 -21 18 -60q-6 -31 -31.5 -52.5t-56.5 -21.5t-49 21.5t-12 52.5z" />
<glyph unicode="&#xd7;" horiz-adv-x="960" d="M100 422l349 299l-244 291l76 65l243 -291l340 291l68 -65l-348 -299l243 -291l-75 -66l-244 293l-340 -293z" />
<glyph unicode="&#xd8;" horiz-adv-x="1697" d="M147 45l146 141q-194 226 -139 547q53 309 301 514q250 209 563 209q239 0 416 -151l131 129l71 -48l-143 -141q197 -228 141 -551q-56 -308 -303 -512q-245 -205 -563 -205q-240 0 -418 152l-131 -129zM264 717q-49 -267 107 -455l985 967q-141 123 -357 123 q-269 0 -481 -185q-208 -184 -254 -450zM428 205q144 -123 358 -123q273 0 480 180q211 181 258 449q47 271 -109 458z" />
<glyph unicode="&#xd9;" horiz-adv-x="1366" d="M152 479q-40 -219 88 -362q128 -140 366 -140q228 0 393 136q162 134 203 366l168 955h-108l-168 -955q-29 -170 -160 -286q-129 -111 -330 -111q-194 0 -284.5 108t-59.5 289l168 955h-109zM696 1837h123l119 -260h-98z" />
<glyph unicode="&#xda;" horiz-adv-x="1366" d="M152 479q-40 -219 88 -362q128 -140 366 -140q228 0 393 136q162 134 203 366l168 955h-108l-168 -955q-29 -170 -160 -286q-129 -111 -330 -111q-194 0 -284.5 108t-59.5 289l168 955h-109zM780 1577l205 260h127l-229 -260h-103z" />
<glyph unicode="&#xdb;" horiz-adv-x="1366" d="M152 479l167 955h109l-168 -955q-31 -181 59.5 -289t284.5 -108q201 0 330 111q131 116 160 286l168 955h108l-168 -955q-41 -232 -203 -366q-165 -136 -393 -136q-238 0 -366 140q-128 143 -88 362zM582 1577l266 260h121l178 -260h-113l-131 195l-198 -195h-123z" />
<glyph unicode="&#xdc;" horiz-adv-x="1366" d="M152 479l167 955h109l-168 -955q-31 -181 59.5 -289t284.5 -108q201 0 330 111q131 116 160 286l168 955h108l-168 -955q-41 -232 -203 -366q-165 -136 -393 -136q-238 0 -366 140q-128 143 -88 362zM621 1665q6 50 55 68q44 16 76 -8q26 -21 18 -60q-6 -31 -31.5 -52.5 t-56.5 -21.5t-49 21.5t-12 52.5zM989 1665q6 51 56 68q46 16 77 -9q24 -22 17 -59q-6 -31 -31.5 -52.5t-56.5 -21.5t-49.5 21.5t-12.5 52.5z" />
<glyph unicode="&#xdd;" horiz-adv-x="1167" d="M188 1434h113l320 -664l553 664h129l-637 -764l-119 -670h-109l119 674zM682 1577l205 260h127l-230 -260h-102z" />
<glyph unicode="&#xde;" horiz-adv-x="1202" d="M88 0l252 1434h109l-48 -273h371q199 0 305 -127q106 -128 72 -317q-30 -192 -180 -318q-151 -127 -373 -127h-352l-47 -272h-109zM262 375h346q173 0 291 100q119 101 143 256q26 147 -51 237.5t-229 90.5h-379z" />
<glyph unicode="&#xdf;" horiz-adv-x="1056" d="M68 0l186 1061q34 192 155.5 293.5t297.5 101.5q157 0 241 -90q86 -89 62 -217q-8 -50 -48 -108t-84 -100.5t-80.5 -84.5t-37.5 -63q-4 -35 19.5 -78.5t58.5 -89.5t69 -96.5t53 -116.5t9 -133q-25 -148 -146 -224t-321 -63l16 94q146 -10 238.5 43.5t109.5 159.5 q10 63 -21 137t-83 133q-124 152 -107 246q5 34 30 68.5t58.5 65t67.5 62.5t60.5 73t33.5 85q17 90 -42 144.5t-169 54.5q-125 0 -219 -78t-119 -225l-186 -1055h-102z" />
<glyph unicode="&#xe0;" d="M92 535q44 241 211 374q169 138 381 138q147 0 261 -75.5t163 -205.5l45 258h102l-180 -1024h-102l37 209q-173 -232 -473 -232q-219 0 -351 166q-134 169 -94 392zM197 526q-35 -185 73 -317q109 -133 291 -133q186 0 326 119q142 121 172 303q34 199 -78 323 q-112 127 -291 127q-176 0 -317 -114t-176 -308zM672 1427h123l118 -260h-98z" />
<glyph unicode="&#xe1;" d="M92 535q44 241 211 374q169 138 381 138q147 0 261 -75.5t163 -205.5l45 258h102l-180 -1024h-102l37 209q-173 -232 -473 -232q-219 0 -351 166q-134 169 -94 392zM197 526q-35 -185 73 -317q109 -133 291 -133q186 0 326 119q142 121 172 303q34 199 -78 323 q-112 127 -291 127q-176 0 -317 -114t-176 -308zM731 1167l205 260h127l-229 -260h-103z" />
<glyph unicode="&#xe2;" d="M92 535q44 241 211 374q169 138 381 138q147 0 261 -75.5t163 -205.5l45 258h102l-180 -1024h-102l37 209q-173 -232 -473 -232q-219 0 -351 166q-134 169 -94 392zM197 526q-35 -185 73 -317q109 -133 291 -133q186 0 326 119q142 121 172 303q34 199 -78 323 q-112 127 -291 127q-176 0 -317 -114t-176 -308zM547 1167l266 260h121l178 -260h-113l-131 195l-198 -195h-123z" />
<glyph unicode="&#xe3;" d="M92 535q44 241 211 374q169 138 381 138q147 0 261 -75.5t163 -205.5l45 258h102l-180 -1024h-102l37 209q-173 -232 -473 -232q-219 0 -351 166q-134 169 -94 392zM197 526q-35 -185 73 -317q109 -133 291 -133q186 0 326 119q142 121 172 303q34 199 -78 323 q-112 127 -291 127q-176 0 -317 -114t-176 -308zM532 1194q19 112 69.5 169t114.5 51t126 -68q78 -78 126 -64t68 121h90q-27 -167 -125 -209q-93 -40 -184 57q-78 78 -126 64t-68 -121h-91z" />
<glyph unicode="&#xe4;" d="M92 535q44 241 211 374q169 138 381 138q147 0 261 -75.5t163 -205.5l45 258h102l-180 -1024h-102l37 209q-173 -232 -473 -232q-219 0 -351 166q-134 169 -94 392zM197 526q-35 -185 73 -317q109 -133 291 -133q186 0 326 119q142 121 172 303q34 199 -78 323 q-112 127 -291 127q-176 0 -317 -114t-176 -308zM496 1255q6 50 55 68q44 16 76 -8q26 -21 18 -60q-6 -31 -31.5 -52t-56.5 -21t-49 21t-12 52zM864 1255q6 51 56 68q46 16 77 -9q24 -22 17 -59q-6 -31 -31.5 -52t-56.5 -21t-49.5 21.5t-12.5 51.5z" />
<glyph unicode="&#xe5;" d="M92 535q44 241 211 374q169 138 381 138q147 0 261 -75.5t163 -205.5l45 258h102l-180 -1024h-102l37 209q-173 -232 -473 -232q-219 0 -351 166q-134 169 -94 392zM197 526q-35 -185 73 -317q109 -133 291 -133q186 0 326 119q142 121 172 303q34 199 -78 323 q-112 127 -291 127q-176 0 -317 -114t-176 -308zM561 1335q13 86 81 140.5t159 54.5q93 0 142.5 -58t37.5 -145q-13 -86 -81 -140t-161 -54t-142.5 57.5t-35.5 144.5zM649 1331q-11 -51 17.5 -84t83.5 -33t94.5 32.5t50.5 84.5q8 54 -20.5 85.5t-83.5 31.5t-95 -32t-47 -85z " />
<glyph unicode="&#xe6;" horiz-adv-x="2174" d="M92 528q44 240 215 377q177 142 385 142q144 0 256.5 -72t161.5 -199l43 248h102l-41 -229q172 252 474 252q218 0 331 -162q114 -164 74 -377q-3 -26 -12 -49h-922q-14 -174 84 -278.5t275 -104.5q126 0 227.5 49t163.5 137l82 -53q-83 -108 -209.5 -170t-270.5 -62 q-148 0 -250.5 68.5t-144.5 192.5l-41 -238h-102l37 215q-82 -113 -207.5 -175.5t-272.5 -62.5q-217 0 -348 162q-130 165 -90 389zM197 518q-34 -183 69 -313q105 -129 289 -129t328 123q143 122 178 305q34 199 -76 321q-108 123 -289 123q-178 0 -321 -119 q-143 -116 -178 -311zM1176 559h819q18 180 -73.5 284.5t-254.5 104.5q-178 0 -313 -108q-131 -107 -178 -281z" />
<glyph unicode="&#xe7;" horiz-adv-x="1150" d="M92 528q41 230 215 373q181 146 408 146q147 0 258.5 -71t152.5 -190l-88 -47q-36 99 -121.5 154t-211.5 55q-188 0 -332 -123q-141 -121 -176 -307q-34 -187 67 -315q103 -127 287 -127q122 0 230 58t171 157l82 -55q-74 -113 -195.5 -181t-269.5 -78l-16 -92 q80 -11 125 -55t35 -106q-35 -190 -428 -156l16 84q145 -13 227 8t93 72q7 44 -38 67t-134 21l28 160q-199 21 -311 178t-74 370z" />
<glyph unicode="&#xe8;" horiz-adv-x="1204" d="M92 526q41 228 211 373q171 148 397 148q229 0 347 -160q119 -158 75 -379q-6 -34 -12 -49h-924q-12 -173 87 -278t276 -105q254 0 389 188l80 -53q-73 -109 -203.5 -171.5t-279.5 -62.5q-233 0 -359 156q-125 154 -84 393zM203 559h821q18 182 -73 285.5t-259 103.5 q-179 0 -309 -106q-134 -110 -180 -283zM563 1427h123l119 -260h-98z" />
<glyph unicode="&#xe9;" horiz-adv-x="1204" d="M92 526q41 228 211 373q171 148 397 148q229 0 347 -160q119 -158 75 -379q-6 -34 -12 -49h-924q-12 -173 87 -278t276 -105q254 0 389 188l80 -53q-73 -109 -203.5 -171.5t-279.5 -62.5q-233 0 -359 156q-125 154 -84 393zM203 559h821q18 182 -73 285.5t-259 103.5 q-179 0 -309 -106q-134 -110 -180 -283zM680 1167l205 260h127l-230 -260h-102z" />
<glyph unicode="&#xea;" horiz-adv-x="1204" d="M92 526q41 228 211 373q171 148 397 148q229 0 347 -160q119 -158 75 -379q-6 -34 -12 -49h-924q-12 -173 87 -278t276 -105q254 0 389 188l80 -53q-73 -109 -203.5 -171.5t-279.5 -62.5q-233 0 -359 156q-125 154 -84 393zM203 559h821q18 182 -73 285.5t-259 103.5 q-179 0 -309 -106q-134 -110 -180 -283zM461 1167l266 260h121l178 -260h-113l-131 195l-198 -195h-123z" />
<glyph unicode="&#xeb;" horiz-adv-x="1204" d="M92 526q41 228 211 373q171 148 397 148q229 0 347 -160q119 -158 75 -379q-6 -34 -12 -49h-924q-12 -173 87 -278t276 -105q254 0 389 188l80 -53q-73 -109 -203.5 -171.5t-279.5 -62.5q-233 0 -359 156q-125 154 -84 393zM203 559h821q18 182 -73 285.5t-259 103.5 q-179 0 -309 -106q-134 -110 -180 -283zM487 1255q6 51 56 68q46 16 77 -9q24 -22 17 -59q-6 -31 -31.5 -52t-56.5 -21t-49.5 21.5t-12.5 51.5zM856 1255q6 51 56 68q46 16 77 -9q24 -22 17 -59q-6 -31 -31.5 -52t-56.5 -21t-49.5 21.5t-12.5 51.5z" />
<glyph unicode="&#xec;" horiz-adv-x="417" d="M68 0h102l180 1024h-102zM233 1427h125l68 -260h-100z" />
<glyph unicode="&#xed;" horiz-adv-x="417" d="M68 0h102l180 1024h-102zM217 1167l158 260h123l-181 -260h-100z" />
<glyph unicode="&#xee;" horiz-adv-x="417" d="M68 0l180 1024h102l-180 -1024h-102zM92 1167l217 260h121l129 -260h-117l-86 176l-147 -176h-117z" />
<glyph unicode="&#xef;" horiz-adv-x="417" d="M68 0l180 1024h102l-180 -1024h-102zM129 1255q6 32 32 54t58 22q31 0 48.5 -22t13.5 -54q-6 -31 -31.5 -52t-56.5 -21q-32 0 -51 21t-13 52zM399 1255q6 32 32 54t58 22q31 0 49.5 -22t12.5 -54q-6 -31 -31.5 -52t-56.5 -21q-32 0 -50.5 21t-13.5 52z" />
<glyph unicode="&#xf0;" horiz-adv-x="1204" d="M86 500q34 205 190 325q157 121 357 121q137 0 229 -57l-170 305l-284 -158l16 97l229 127l-96 174h107l73 -127l248 137l-18 -96l-193 -107l279 -485q78 -136 51 -314q-40 -220 -201 -344q-160 -121 -375 -121q-206 0 -346 152q-137 149 -96 371zM190 492 q-34 -175 72 -297q107 -119 285 -119q171 0 295 100q128 103 157 275q24 154 -28 245q-96 158 -330 158q-178 0 -300 -97.5t-151 -264.5z" />
<glyph unicode="&#xf1;" horiz-adv-x="1155" d="M68 0l180 1024h102l-31 -178q145 201 394 201q183 0 274 -112t60 -298l-113 -637h-105l113 637q25 144 -39.5 227.5t-208.5 83.5q-162 0 -277.5 -106.5t-150.5 -300.5v2l-96 -543h-102zM412 1194q19 113 69.5 169.5t114 50.5t125.5 -68q78 -78 126 -64t68 121h91 q-27 -167 -125 -209q-94 -40 -185 57q-78 78 -126 64t-68 -121h-90z" />
<glyph unicode="&#xf2;" horiz-adv-x="1253" d="M90 522q-41 -244 96 -393q140 -152 355 -152q216 0 399 142q179 139 223 385q41 238 -92 389q-133 154 -348 154q-221 0 -406 -144q-183 -140 -227 -381zM195 512q34 194 182 315q147 118 328 121q175 0 282 -119q108 -120 74 -313q-35 -202 -184 -321 q-146 -119 -326 -119q-178 0 -285 119q-106 118 -71 317zM608 1427h123l119 -260h-98z" />
<glyph unicode="&#xf3;" horiz-adv-x="1253" d="M90 522q-41 -244 96 -393q140 -152 355 -152q216 0 399 142q179 139 223 385q41 238 -92 389q-133 154 -348 154q-221 0 -406 -144q-183 -140 -227 -381zM195 512q34 194 182 315q147 118 328 121q175 0 282 -119q108 -120 74 -313q-35 -202 -184 -321 q-146 -119 -326 -119q-178 0 -285 119q-106 118 -71 317zM709 1167l204 260h127l-229 -260h-102z" />
<glyph unicode="&#xf4;" horiz-adv-x="1253" d="M90 522q44 241 227 381q185 144 406 144q215 0 348 -154q133 -151 92 -389q-44 -246 -223 -385q-183 -142 -399 -142q-215 0 -355 152q-137 149 -96 393zM195 512q-35 -199 71 -317q107 -119 285 -119q180 0 326 119q149 119 184 321q34 193 -74 313q-107 119 -282 119 q-181 -3 -328 -121q-148 -121 -182 -315zM483 1167l267 260h120l179 -260h-113l-131 195l-199 -195h-123z" />
<glyph unicode="&#xf5;" horiz-adv-x="1253" d="M90 522q44 241 227 381q185 144 406 144q215 0 348 -154q133 -151 92 -389q-44 -246 -223 -385q-183 -142 -399 -142q-215 0 -355 152q-137 149 -96 393zM195 512q-35 -199 71 -317q107 -119 285 -119q180 0 326 119q149 119 184 321q34 193 -74 313q-107 119 -282 119 q-181 -3 -328 -121q-148 -121 -182 -315zM492 1194q19 113 69.5 169.5t114 50.5t125.5 -68q78 -78 126 -64t68 121h90q-27 -167 -124 -209q-94 -40 -185 57q-78 78 -126 64t-68 -121h-90z" />
<glyph unicode="&#xf6;" horiz-adv-x="1253" d="M90 522q44 241 227 381q185 144 406 144q215 0 348 -154q133 -151 92 -389q-44 -246 -223 -385q-183 -142 -399 -142q-215 0 -355 152q-137 149 -96 393zM195 512q-35 -199 71 -317q107 -119 285 -119q180 0 326 119q149 119 184 321q34 193 -74 313q-107 119 -282 119 q-181 -3 -328 -121q-148 -121 -182 -315zM494 1255q6 50 55 68q44 16 76 -8q26 -21 18 -60q-6 -31 -31.5 -52t-56.5 -21t-49 21t-12 52zM862 1255q6 51 56 68q46 16 77 -9q24 -22 17 -59q-6 -31 -31.5 -52t-56.5 -21t-49.5 21.5t-12.5 51.5z" />
<glyph unicode="&#xf7;" horiz-adv-x="1187" d="M158 668l16 98h928l-17 -98h-927zM471 338q6 38 36 63t71 25q38 0 60.5 -28.5t16.5 -67.5q-7 -38 -38 -63t-70 -25q-38 0 -61 29t-15 67zM606 1104q6 38 36 63t71 25q38 0 61 -28.5t17 -67.5q-7 -38 -38.5 -63t-70.5 -25q-38 0 -61 29t-15 67z" />
<glyph unicode="&#xf8;" horiz-adv-x="1253" d="M61 35l115 106q-126 153 -86 381q44 241 227 381q185 144 406 144q181 0 307 -111l100 94l66 -41l-115 -106q122 -156 82 -379q-44 -246 -223 -385q-183 -142 -399 -142q-185 0 -314 111l-100 -94zM195 512q-30 -179 59 -299l698 651q-104 84 -247 84q-181 -3 -328 -121 q-148 -121 -182 -315zM305 160q96 -84 246 -84q180 0 326 119q149 119 184 321q30 178 -57 293z" />
<glyph unicode="&#xf9;" horiz-adv-x="1155" d="M109 387l112 637h105l-113 -637q-25 -144 39.5 -227.5t208.5 -83.5q162 0 277.5 106.5t150.5 300.5v-2l96 543h102l-180 -1024h-102l31 178q-145 -201 -394 -201q-183 0 -273.5 112t-59.5 298zM508 1427h123l119 -260h-99z" />
<glyph unicode="&#xfa;" horiz-adv-x="1155" d="M109 387l112 637h105l-113 -637q-25 -144 39.5 -227.5t208.5 -83.5q162 0 277.5 106.5t150.5 300.5v-2l96 543h102l-180 -1024h-102l31 178q-145 -201 -394 -201q-183 0 -273.5 112t-59.5 298zM627 1167l204 260h127l-229 -260h-102z" />
<glyph unicode="&#xfb;" horiz-adv-x="1155" d="M109 387l112 637h105l-113 -637q-25 -144 39.5 -227.5t208.5 -83.5q162 0 277.5 106.5t150.5 300.5v-2l96 543h102l-180 -1024h-102l31 178q-145 -201 -394 -201q-183 0 -273.5 112t-59.5 298zM393 1167l266 260h121l178 -260h-112l-131 195l-199 -195h-123z" />
<glyph unicode="&#xfc;" horiz-adv-x="1155" d="M109 387l112 637h105l-113 -637q-25 -144 39.5 -227.5t208.5 -83.5q162 0 277.5 106.5t150.5 300.5v-2l96 543h102l-180 -1024h-102l31 178q-145 -201 -394 -201q-183 0 -273.5 112t-59.5 298zM432 1255q6 51 56 68q46 16 77 -9q24 -22 17 -59q-6 -31 -31.5 -52 t-56.5 -21t-49.5 21.5t-12.5 51.5zM801 1255q6 50 55 68q44 16 76 -8q26 -21 18 -60q-6 -31 -31.5 -52t-56.5 -21t-49 21t-12 52z" />
<glyph unicode="&#xfd;" horiz-adv-x="1044" d="M8 -410l17 97q192 -18 342 239l34 58l-284 1040h104l248 -922l522 922h117l-639 -1118q-91 -161 -211 -243.5t-250 -72.5zM555 1167l205 260h127l-230 -260h-102z" />
<glyph unicode="&#xfe;" d="M-4 -410l323 1844h103l-109 -619q173 232 473 232q219 0 351 -166q134 -169 94 -392q-43 -238 -213 -376q-171 -136 -379 -136q-147 0 -261 74.5t-163 204.5l-117 -666h-102zM264 526q-35 -200 76 -325q113 -125 293 -125q178 0 317 112q141 114 176 310q35 185 -73 317 q-109 133 -291 133q-186 0 -326 -119q-138 -120 -172 -303z" />
<glyph unicode="&#xff;" horiz-adv-x="1044" d="M8 -410l17 97q192 -18 342 239l34 58l-284 1040h104l248 -922l522 922h117l-639 -1118q-91 -161 -211 -243.5t-250 -72.5zM360 1255q6 51 56 68q46 16 77 -9q24 -22 17 -59q-6 -31 -31.5 -52t-56.5 -21t-49.5 21.5t-12.5 51.5zM729 1255q6 51 56 68q46 16 77 -9 q24 -22 17 -59q-6 -31 -31.5 -52t-56.5 -21t-49.5 21.5t-12.5 51.5z" />
<glyph unicode="&#x152;" horiz-adv-x="1875" d="M133 725q56 311 293 520q239 211 557 211q98 0 188 -22h768l-18 -103h-659l-99 -557h623l-19 -102h-620l-100 -570h669l-18 -102h-778l233 1323q-92 29 -188 29q-265 0 -471 -185q-203 -179 -250 -450q-49 -267 90 -453q138 -182 407 -182q95 0 197 29l-18 -111 q-104 -23 -197 -23q-307 0 -477 218q-169 217 -113 530z" />
<glyph unicode="&#x153;" horiz-adv-x="2172" d="M90 520q40 227 219 377t412 150q157 0 271 -88t151 -232q80 149 221.5 234.5t310.5 85.5q219 0 338 -162q119 -158 78 -377l-12 -49h-924q-13 -173 86.5 -278t276.5 -105q252 0 387 188l82 -53q-74 -109 -203.5 -171.5t-272.5 -62.5q-169 0 -283.5 86.5t-150.5 235.5 q-82 -149 -227.5 -235.5t-317.5 -86.5q-220 0 -354 158q-129 159 -88 385zM195 512q-35 -185 67 -311q101 -125 289 -125q183 0 328 127q148 127 178 309q35 182 -68 309t-284 127q-187 0 -332 -127q-144 -126 -178 -309zM1171 559h822q18 182 -73.5 285.5t-258.5 103.5 q-179 0 -309 -106q-135 -111 -181 -283z" />
<glyph unicode="&#x178;" horiz-adv-x="1167" d="M188 1434h113l320 -664l553 664h129l-637 -764l-119 -670h-109l119 674zM522 1665q6 51 56 68q46 16 77 -9q24 -22 17 -59q-6 -31 -31.5 -52.5t-56.5 -21.5t-49.5 21.5t-12.5 52.5zM891 1665q6 50 55 68q44 16 76 -8q26 -21 18 -60q-6 -31 -31.5 -52.5t-56.5 -21.5 t-49 21.5t-12 52.5z" />
<glyph unicode="&#x2c6;" horiz-adv-x="645" d="M156 1167l266 260h121l178 -260h-113l-131 195l-198 -195h-123z" />
<glyph unicode="&#x2dc;" horiz-adv-x="638" d="M162 1194q19 113 69.5 169.5t114 50.5t125.5 -68q155 -155 195 57h90q-27 -167 -125 -209q-94 -40 -185 57q-78 78 -126 64t-68 -121h-90z" />
<glyph unicode="&#x2000;" horiz-adv-x="918" />
<glyph unicode="&#x2001;" horiz-adv-x="1837" />
<glyph unicode="&#x2002;" horiz-adv-x="918" />
<glyph unicode="&#x2003;" horiz-adv-x="1837" />
<glyph unicode="&#x2004;" horiz-adv-x="612" />
<glyph unicode="&#x2005;" horiz-adv-x="459" />
<glyph unicode="&#x2006;" horiz-adv-x="306" />
<glyph unicode="&#x2007;" horiz-adv-x="306" />
<glyph unicode="&#x2008;" horiz-adv-x="229" />
<glyph unicode="&#x2009;" horiz-adv-x="367" />
<glyph unicode="&#x200a;" horiz-adv-x="102" />
<glyph unicode="&#x2010;" horiz-adv-x="1091" d="M190 584l17 98h737l-16 -98h-738z" />
<glyph unicode="&#x2011;" horiz-adv-x="1091" d="M190 584l17 98h737l-16 -98h-738z" />
<glyph unicode="&#x2012;" horiz-adv-x="1091" d="M190 584l17 98h737l-16 -98h-738z" />
<glyph unicode="&#x2013;" horiz-adv-x="1361" d="M190 584l17 98h1007l-16 -98h-1008z" />
<glyph unicode="&#x2014;" horiz-adv-x="1566" d="M190 584l17 98h1212l-16 -98h-1213z" />
<glyph unicode="&#x2018;" horiz-adv-x="458" d="M213 1008l186 426h95l-152 -426h-129z" />
<glyph unicode="&#x2019;" horiz-adv-x="458" d="M215 1008l152 426h129l-187 -426h-94z" />
<glyph unicode="&#x201a;" horiz-adv-x="456" d="M-14 -287l151 426h129l-186 -426h-94z" />
<glyph unicode="&#x201c;" horiz-adv-x="718" d="M213 1008l186 426h95l-152 -426h-129zM473 1008l186 426h95l-152 -426h-129z" />
<glyph unicode="&#x201d;" horiz-adv-x="718" d="M215 1008l152 426h129l-187 -426h-94zM475 1008l152 426h129l-187 -426h-94z" />
<glyph unicode="&#x201e;" horiz-adv-x="716" d="M-14 -287l151 426h129l-186 -426h-94zM246 -287l151 426h129l-186 -426h-94z" />
<glyph unicode="&#x2022;" horiz-adv-x="573" d="M147 725q13 73 73.5 121.5t135.5 48.5q72 0 115 -55t29 -127q-13 -75 -72.5 -124.5t-134.5 -49.5q-73 0 -116.5 56t-29.5 130z" />
<glyph unicode="&#x2026;" horiz-adv-x="1214" d="M54 28q-15 49 16 94q31 47 86 42q38 0 61 -28t16 -66q-8 -41 -36.5 -65.5t-71.5 -24.5q-56 -3 -71 48zM443 28q-15 49 16 94q31 47 86 42q38 0 61.5 -28t16.5 -66q-8 -41 -37 -65.5t-72 -24.5q-56 -3 -71 48zM832 28q-15 49 16 94q31 47 86 42q38 0 61.5 -28t16.5 -66 q-8 -41 -37 -65.5t-72 -24.5q-56 -3 -71 48z" />
<glyph unicode="&#x202f;" horiz-adv-x="367" />
<glyph unicode="&#x2039;" horiz-adv-x="681" d="M184 633l283 354h135l-289 -362l154 -346h-125z" />
<glyph unicode="&#x203a;" horiz-adv-x="684" d="M123 279l289 362l-154 346h125l158 -354l-283 -354h-135z" />
<glyph unicode="&#x205f;" horiz-adv-x="459" />
<glyph unicode="&#x20ac;" horiz-adv-x="1234" d="M55 549l15 92h159q2 35 13 86q2 24 16 78h-158l15 90h166q83 267 245 414t381 147q140 0 239 -71.5t142 -202.5l-98 -49q-65 219 -301 219q-167 0 -295.5 -118.5t-200.5 -338.5h549l-16 -90h-557l-19 -88q-4 -22 -7 -49l-3 -27h557l-16 -92h-549q-11 -223 76.5 -345 t257.5 -122q236 0 374 225l88 -53q-173 -277 -481 -277q-208 0 -323 154q-112 153 -103 418h-166z" />
<glyph unicode="&#x2122;" horiz-adv-x="980" d="M254 1370l12 64h307l-10 -64h-119l-61 -346h-70l62 346h-121zM557 1024l72 410h69l90 -224l177 224h75l-71 -410h-68l51 295l-174 -217h-8l-92 215l-51 -293h-70z" />
<glyph unicode="&#x25fc;" horiz-adv-x="1024" d="M0 0v1024h1024v-1024h-1024z" />
<glyph unicode="&#xfb03;" horiz-adv-x="1597" d="M127 924l18 100h177l10 55q35 197 157 293.5t320 83.5l-18 -98q-303 24 -355 -279l-10 -55h448l13 76q64 377 477 377q83 0 195 -23l-17 -94q-99 18 -196 18q-159 0 -244 -65.5t-111 -212.5l-12 -76h551l-180 -1024h-103l162 924h-448l-162 -924h-105l162 924h-446 l-164 -924h-105l164 924h-178z" />
<glyph unicode="&#xfb04;" horiz-adv-x="1597" d="M127 924l18 100h177l10 55q35 197 157 293.5t320 83.5l-18 -98q-303 24 -355 -279l-10 -55h448l13 76q64 377 477 377q101 0 242 -23l-256 -1454h-103l242 1374q-57 8 -141 8q-159 0 -245 -67.5t-112 -214.5l-12 -76h244l-19 -100h-243l-162 -924h-105l162 924h-446 l-164 -924h-105l164 924h-178z" />
</font>
</defs>
</svg>
